solid OpenSCAD_Model
  facet normal 0.987689 0.156431 0
    outer loop
      vertex 49.7261 5.22642 10
      vertex 48.9074 10.3956 0
      vertex 48.9074 10.3956 10
    endloop
  endfacet
  facet normal 0.987689 0.156431 0
    outer loop
      vertex 48.9074 10.3956 0
      vertex 49.7261 5.22642 10
      vertex 49.7261 5.22642 0
    endloop
  endfacet
  facet normal 0.475181 0.586775 0.655667
    outer loop
      vertex 33.4565 37.1572 10
      vertex 17.6336 24.2705 33
      vertex 20.0739 22.2943 33
    endloop
  endfacet
  facet normal -0.754016 0.0395156 0.655666
    outer loop
      vertex -49.7261 5.22642 10
      vertex -50 0 10
      vertex -30 0 33
    endloop
  endfacet
  facet normal -0.411234 -0.633237 0.655666
    outer loop
      vertex -17.6336 -24.2705 33
      vertex -25 -43.3013 10
      vertex -15 -25.9808 33
    endloop
  endfacet
  facet normal 0.777132 -0.629337 0
    outer loop
      vertex 37.1572 -33.4565 10
      vertex 40.4509 -29.3893 0
      vertex 40.4509 -29.3893 10
    endloop
  endfacet
  facet normal 0.777132 -0.629337 0
    outer loop
      vertex 40.4509 -29.3893 0
      vertex 37.1572 -33.4565 10
      vertex 37.1572 -33.4565 0
    endloop
  endfacet
  facet normal -0.052335 -0.99863 0
    outer loop
      vertex -5.22642 -49.7261 0
      vertex 0 -50 10
      vertex -5.22642 -49.7261 10
    endloop
  endfacet
  facet normal -0.052335 -0.99863 -0
    outer loop
      vertex 0 -50 10
      vertex -5.22642 -49.7261 0
      vertex 0 -50 0
    endloop
  endfacet
  facet normal 0.729324 -0.195414 0.655667
    outer loop
      vertex 29.3444 -6.23735 33
      vertex 28.5317 -9.27051 33
      vertex 48.9074 -10.3956 10
    endloop
  endfacet
  facet normal 0.533902 -0.533902 0.655666
    outer loop
      vertex 22.2943 -20.0739 33
      vertex 33.4565 -37.1572 10
      vertex 37.1572 -33.4565 10
    endloop
  endfacet
  facet normal 0.533902 -0.533902 0.655666
    outer loop
      vertex 33.4565 -37.1572 10
      vertex 22.2943 -20.0739 33
      vertex 20.0739 -22.2943 33
    endloop
  endfacet
  facet normal 0.777132 0.629337 0
    outer loop
      vertex 40.4509 29.3893 10
      vertex 37.1572 33.4565 0
      vertex 37.1572 33.4565 10
    endloop
  endfacet
  facet normal 0.777132 0.629337 0
    outer loop
      vertex 37.1572 33.4565 0
      vertex 40.4509 29.3893 10
      vertex 40.4509 29.3893 0
    endloop
  endfacet
  facet normal -0.411225 -0.633241 0.655667
    outer loop
      vertex -17.6336 -24.2705 33
      vertex -29.3893 -40.4509 10
      vertex -25 -43.3013 10
    endloop
  endfacet
  facet normal 0.586774 0.475181 0.655667
    outer loop
      vertex 37.1572 33.4565 10
      vertex 24.2705 17.6336 33
      vertex 40.4509 29.3893 10
    endloop
  endfacet
  facet normal 0.195427 0.729323 0.655665
    outer loop
      vertex 10.5 48.8794 10
      vertex 10.5 32.3157 28.4245
      vertex 15.4508 47.5528 10
    endloop
  endfacet
  facet normal 0.629337 -0.777132 0
    outer loop
      vertex 29.3893 -40.4509 0
      vertex 33.4565 -37.1572 10
      vertex 29.3893 -40.4509 10
    endloop
  endfacet
  facet normal 0.629337 -0.777132 0
    outer loop
      vertex 33.4565 -37.1572 10
      vertex 29.3893 -40.4509 0
      vertex 33.4565 -37.1572 0
    endloop
  endfacet
  facet normal -0.052335 0.99863 0
    outer loop
      vertex 0 50 0
      vertex -5.22642 49.7261 10
      vertex 0 50 10
    endloop
  endfacet
  facet normal -0.052335 0.99863 0
    outer loop
      vertex -5.22642 49.7261 10
      vertex 0 50 0
      vertex -5.22642 49.7261 0
    endloop
  endfacet
  facet normal -0.156431 0.987689 0
    outer loop
      vertex -5.22642 49.7261 0
      vertex -10.3956 48.9074 10
      vertex -5.22642 49.7261 10
    endloop
  endfacet
  facet normal -0.156431 0.987689 0
    outer loop
      vertex -10.3956 48.9074 10
      vertex -5.22642 49.7261 0
      vertex -10.3956 48.9074 0
    endloop
  endfacet
  facet normal -0.754016 -0.0395156 0.655666
    outer loop
      vertex -30 0 33
      vertex -50 0 10
      vertex -49.7261 -5.22642 10
    endloop
  endfacet
  facet normal 0.533902 0.533902 0.655666
    outer loop
      vertex 33.4565 37.1572 10
      vertex 22.2943 20.0739 33
      vertex 37.1572 33.4565 10
    endloop
  endfacet
  facet normal 0.533902 0.533902 0.655666
    outer loop
      vertex 22.2943 20.0739 33
      vertex 33.4565 37.1572 10
      vertex 20.0739 22.2943 33
    endloop
  endfacet
  facet normal -0.475181 0.586774 0.655667
    outer loop
      vertex -29.3893 40.4509 10
      vertex -33.4565 37.1572 10
      vertex -17.6336 24.2705 33
    endloop
  endfacet
  facet normal 0.754016 -0.0395156 0.655666
    outer loop
      vertex 50 0 10
      vertex 30 0 33
      vertex 49.7261 -5.22642 10
    endloop
  endfacet
  facet normal -0.342784 -0.672757 0.655666
    outer loop
      vertex -15 -25.9808 33
      vertex -25 -43.3013 10
      vertex -20.3368 -45.6773 10
    endloop
  endfacet
  facet normal -0.270553 0.704897 0.655684
    outer loop
      vertex -10.5 30.4366 30.4447
      vertex -12.2021 27.4064 33
      vertex -10.5 28.0597 33
    endloop
  endfacet
  facet normal -0.270587 0.704901 0.655666
    outer loop
      vertex -12.2021 27.4064 33
      vertex -10.5 30.4366 30.4447
      vertex -20.3368 45.6773 10
    endloop
  endfacet
  facet normal 0.745756 -0.118114 0.655666
    outer loop
      vertex 49.7261 -5.22642 10
      vertex 29.8357 -3.13585 33
      vertex 48.9074 -10.3956 10
    endloop
  endfacet
  facet normal 0.586774 -0.475181 0.655667
    outer loop
      vertex 40.4509 -29.3893 10
      vertex 24.2705 -17.6336 33
      vertex 37.1572 -33.4565 10
    endloop
  endfacet
  facet normal 0.707107 0.707107 0
    outer loop
      vertex 37.1572 33.4565 10
      vertex 33.4565 37.1572 0
      vertex 33.4565 37.1572 10
    endloop
  endfacet
  facet normal 0.707107 0.707107 0
    outer loop
      vertex 33.4565 37.1572 0
      vertex 37.1572 33.4565 10
      vertex 37.1572 33.4565 0
    endloop
  endfacet
  facet normal -0.270553 -0.704897 0.655684
    outer loop
      vertex -12.2021 -27.4064 33
      vertex -10.5 -30.4366 30.4447
      vertex -10.5 -28.0597 33
    endloop
  endfacet
  facet normal -0.270587 -0.704901 0.655666
    outer loop
      vertex -10.5 -30.4366 30.4447
      vertex -12.2021 -27.4064 33
      vertex -20.3368 -45.6773 10
    endloop
  endfacet
  facet normal -0.411225 0.633241 0.655667
    outer loop
      vertex -25 43.3013 10
      vertex -29.3893 40.4509 10
      vertex -17.6336 24.2705 33
    endloop
  endfacet
  facet normal -0.704904 -0.270579 0.655666
    outer loop
      vertex -28.5317 -9.27051 33
      vertex -47.5528 -15.4508 10
      vertex -45.6773 -20.3368 10
    endloop
  endfacet
  facet normal -0.933584 0.358358 0
    outer loop
      vertex -47.5528 15.4508 0
      vertex -45.6773 20.3368 10
      vertex -45.6773 20.3368 0
    endloop
  endfacet
  facet normal -0.933584 0.358358 0
    outer loop
      vertex -45.6773 20.3368 10
      vertex -47.5528 15.4508 0
      vertex -47.5528 15.4508 10
    endloop
  endfacet
  facet normal 0.342784 -0.672757 0.655666
    outer loop
      vertex 25 -43.3013 10
      vertex 15 -25.9808 33
      vertex 20.3368 -45.6773 10
    endloop
  endfacet
  facet normal 0.891008 0.453988 0
    outer loop
      vertex 45.6773 20.3368 10
      vertex 43.3013 25 0
      vertex 43.3013 25 10
    endloop
  endfacet
  facet normal 0.891008 0.453988 0
    outer loop
      vertex 43.3013 25 0
      vertex 45.6773 20.3368 10
      vertex 45.6773 20.3368 0
    endloop
  endfacet
  facet normal -0.475181 0.586775 0.655667
    outer loop
      vertex -17.6336 24.2705 33
      vertex -33.4565 37.1572 10
      vertex -20.0739 22.2943 33
    endloop
  endfacet
  facet normal 0.342786 0.672756 0.655666
    outer loop
      vertex 20.3368 45.6773 10
      vertex 12.2021 27.4064 33
      vertex 15 25.9808 33
    endloop
  endfacet
  facet normal -0.838674 0.544633 0
    outer loop
      vertex -43.3013 25 0
      vertex -40.4509 29.3893 10
      vertex -40.4509 29.3893 0
    endloop
  endfacet
  facet normal -0.838674 0.544633 0
    outer loop
      vertex -40.4509 29.3893 10
      vertex -43.3013 25 0
      vertex -43.3013 25 10
    endloop
  endfacet
  facet normal -0.156431 -0.987689 0
    outer loop
      vertex -10.3956 -48.9074 0
      vertex -5.22642 -49.7261 10
      vertex -10.3956 -48.9074 10
    endloop
  endfacet
  facet normal -0.156431 -0.987689 -0
    outer loop
      vertex -5.22642 -49.7261 10
      vertex -10.3956 -48.9074 0
      vertex -5.22642 -49.7261 0
    endloop
  endfacet
  facet normal 0.195427 -0.729323 0.655665
    outer loop
      vertex 10.5 -32.3157 28.4245
      vertex 10.5 -48.8794 10
      vertex 15.4508 -47.5528 10
    endloop
  endfacet
  facet normal 0.475181 0.586774 0.655667
    outer loop
      vertex 29.3893 40.4509 10
      vertex 17.6336 24.2705 33
      vertex 33.4565 37.1572 10
    endloop
  endfacet
  facet normal 0.754018 0.0395061 0.655665
    outer loop
      vertex 49.7261 5.22642 10
      vertex 29.8357 3.13585 33
      vertex 30 0 33
    endloop
  endfacet
  facet normal -0.99863 -0.052335 0
    outer loop
      vertex -49.7261 -5.22642 0
      vertex -50 0 10
      vertex -50 0 0
    endloop
  endfacet
  facet normal -0.99863 -0.052335 0
    outer loop
      vertex -50 0 10
      vertex -49.7261 -5.22642 0
      vertex -49.7261 -5.22642 10
    endloop
  endfacet
  facet normal 0.544633 -0.838674 0
    outer loop
      vertex 25 -43.3013 0
      vertex 29.3893 -40.4509 10
      vertex 25 -43.3013 10
    endloop
  endfacet
  facet normal 0.544633 -0.838674 0
    outer loop
      vertex 29.3893 -40.4509 10
      vertex 25 -43.3013 0
      vertex 29.3893 -40.4509 0
    endloop
  endfacet
  facet normal -0.342786 -0.672756 0.655666
    outer loop
      vertex -15 -25.9808 33
      vertex -20.3368 -45.6773 10
      vertex -12.2021 -27.4064 33
    endloop
  endfacet
  facet normal 0.342786 -0.672756 0.655666
    outer loop
      vertex 15 -25.9808 33
      vertex 12.2021 -27.4064 33
      vertex 20.3368 -45.6773 10
    endloop
  endfacet
  facet normal -0.633241 0.411225 0.655667
    outer loop
      vertex -40.4509 29.3893 10
      vertex -43.3013 25 10
      vertex -24.2705 17.6336 33
    endloop
  endfacet
  facet normal -0.629337 0.777132 0
    outer loop
      vertex -29.3893 40.4509 0
      vertex -33.4565 37.1572 10
      vertex -29.3893 40.4509 10
    endloop
  endfacet
  facet normal -0.629337 0.777132 0
    outer loop
      vertex -33.4565 37.1572 10
      vertex -29.3893 40.4509 0
      vertex -33.4565 37.1572 0
    endloop
  endfacet
  facet normal -0.672756 -0.342786 0.655666
    outer loop
      vertex -27.4064 -12.2021 33
      vertex -45.6773 -20.3368 10
      vertex -25.9808 -15 33
    endloop
  endfacet
  facet normal -0.754018 0.0395061 0.655665
    outer loop
      vertex -29.8357 3.13585 33
      vertex -49.7261 5.22642 10
      vertex -30 0 33
    endloop
  endfacet
  facet normal 0.99863 -0.052335 0
    outer loop
      vertex 49.7261 -5.22642 10
      vertex 50 0 0
      vertex 50 0 10
    endloop
  endfacet
  facet normal 0.99863 -0.052335 0
    outer loop
      vertex 50 0 0
      vertex 49.7261 -5.22642 10
      vertex 49.7261 -5.22642 0
    endloop
  endfacet
  facet normal 0.270553 -0.704897 0.655684
    outer loop
      vertex 10.5 -30.4366 30.4447
      vertex 12.2021 -27.4064 33
      vertex 10.5 -28.0597 33
    endloop
  endfacet
  facet normal 0.270587 -0.704901 0.655666
    outer loop
      vertex 12.2021 -27.4064 33
      vertex 10.5 -30.4366 30.4447
      vertex 20.3368 -45.6773 10
    endloop
  endfacet
  facet normal 0.259044 -0.965865 0
    outer loop
      vertex 10.3956 -48.9074 0
      vertex 10.5 -48.8794 10
      vertex 10.3956 -48.9074 10
    endloop
  endfacet
  facet normal 0.25883 -0.965923 2.39532e-06
    outer loop
      vertex 15.4508 -47.5528 0
      vertex 10.5 -48.8794 10
      vertex 10.3956 -48.9074 0
    endloop
  endfacet
  facet normal 0.258826 -0.965924 0
    outer loop
      vertex 10.5 -48.8794 10
      vertex 15.4508 -47.5528 0
      vertex 15.4508 -47.5528 10
    endloop
  endfacet
  facet normal -0.704904 0.270579 0.655666
    outer loop
      vertex -45.6773 20.3368 10
      vertex -47.5528 15.4508 10
      vertex -28.5317 9.27051 33
    endloop
  endfacet
  facet normal 0.258826 0.965924 -0
    outer loop
      vertex 15.4508 47.5528 0
      vertex 10.5 48.8794 10
      vertex 15.4508 47.5528 10
    endloop
  endfacet
  facet normal 0.25883 0.965923 2.39532e-06
    outer loop
      vertex 10.3956 48.9074 0
      vertex 10.5 48.8794 10
      vertex 15.4508 47.5528 0
    endloop
  endfacet
  facet normal 0.259044 0.965865 0
    outer loop
      vertex 10.5 48.8794 10
      vertex 10.3956 48.9074 0
      vertex 10.3956 48.9074 10
    endloop
  endfacet
  facet normal -0.342786 0.672756 0.655666
    outer loop
      vertex -12.2021 27.4064 33
      vertex -20.3368 45.6773 10
      vertex -15 25.9808 33
    endloop
  endfacet
  facet normal -0.258826 -0.965924 0
    outer loop
      vertex -15.4508 -47.5528 0
      vertex -10.5 -48.8794 10
      vertex -15.4508 -47.5528 10
    endloop
  endfacet
  facet normal -0.25883 -0.965923 2.39532e-06
    outer loop
      vertex -10.3956 -48.9074 0
      vertex -10.5 -48.8794 10
      vertex -15.4508 -47.5528 0
    endloop
  endfacet
  facet normal -0.259044 -0.965865 0
    outer loop
      vertex -10.5 -48.8794 10
      vertex -10.3956 -48.9074 0
      vertex -10.3956 -48.9074 10
    endloop
  endfacet
  facet normal 0.933584 -0.358358 0
    outer loop
      vertex 45.6773 -20.3368 10
      vertex 47.5528 -15.4508 0
      vertex 47.5528 -15.4508 10
    endloop
  endfacet
  facet normal 0.933584 -0.358358 0
    outer loop
      vertex 47.5528 -15.4508 0
      vertex 45.6773 -20.3368 10
      vertex 45.6773 -20.3368 0
    endloop
  endfacet
  facet normal 0.27059 0.704899 0.655666
    outer loop
      vertex 20.3368 45.6773 10
      vertex 10.5 32.3157 28.4245
      vertex 10.5 30.4366 30.4447
    endloop
  endfacet
  facet normal 0.270579 0.704905 0.655664
    outer loop
      vertex 10.5 32.3157 28.4245
      vertex 20.3368 45.6773 10
      vertex 15.4508 47.5528 10
    endloop
  endfacet
  facet normal 0.453988 0.891008 -0
    outer loop
      vertex 25 43.3013 0
      vertex 20.3368 45.6773 10
      vertex 25 43.3013 10
    endloop
  endfacet
  facet normal 0.453988 0.891008 0
    outer loop
      vertex 20.3368 45.6773 10
      vertex 25 43.3013 0
      vertex 20.3368 45.6773 0
    endloop
  endfacet
  facet normal 0.358358 -0.933584 0
    outer loop
      vertex 15.4508 -47.5528 0
      vertex 20.3368 -45.6773 10
      vertex 15.4508 -47.5528 10
    endloop
  endfacet
  facet normal 0.358358 -0.933584 0
    outer loop
      vertex 20.3368 -45.6773 10
      vertex 15.4508 -47.5528 0
      vertex 20.3368 -45.6773 0
    endloop
  endfacet
  facet normal -0.533902 0.533902 0.655666
    outer loop
      vertex -33.4565 37.1572 10
      vertex -22.2943 20.0739 33
      vertex -20.0739 22.2943 33
    endloop
  endfacet
  facet normal -0.533902 0.533902 0.655666
    outer loop
      vertex -22.2943 20.0739 33
      vertex -33.4565 37.1572 10
      vertex -37.1572 33.4565 10
    endloop
  endfacet
  facet normal 0.052335 -0.99863 0
    outer loop
      vertex 0 -50 0
      vertex 5.22642 -49.7261 10
      vertex 0 -50 10
    endloop
  endfacet
  facet normal 0.052335 -0.99863 0
    outer loop
      vertex 5.22642 -49.7261 10
      vertex 0 -50 0
      vertex 5.22642 -49.7261 0
    endloop
  endfacet
  facet normal 0.838674 -0.544633 0
    outer loop
      vertex 40.4509 -29.3893 10
      vertex 43.3013 -25 0
      vertex 43.3013 -25 10
    endloop
  endfacet
  facet normal 0.838674 -0.544633 0
    outer loop
      vertex 43.3013 -25 0
      vertex 40.4509 -29.3893 10
      vertex 40.4509 -29.3893 0
    endloop
  endfacet
  facet normal 0.156431 -0.987689 0
    outer loop
      vertex 5.22642 -49.7261 0
      vertex 10.3956 -48.9074 10
      vertex 5.22642 -49.7261 10
    endloop
  endfacet
  facet normal 0.156431 -0.987689 0
    outer loop
      vertex 10.3956 -48.9074 10
      vertex 5.22642 -49.7261 0
      vertex 10.3956 -48.9074 0
    endloop
  endfacet
  facet normal 0.633241 -0.411225 0.655667
    outer loop
      vertex 43.3013 -25 10
      vertex 24.2705 -17.6336 33
      vertex 40.4509 -29.3893 10
    endloop
  endfacet
  facet normal 0.629337 0.777132 -0
    outer loop
      vertex 33.4565 37.1572 0
      vertex 29.3893 40.4509 10
      vertex 33.4565 37.1572 10
    endloop
  endfacet
  facet normal 0.629337 0.777132 0
    outer loop
      vertex 29.3893 40.4509 10
      vertex 33.4565 37.1572 0
      vertex 29.3893 40.4509 0
    endloop
  endfacet
  facet normal 0.156431 0.987689 -0
    outer loop
      vertex 10.3956 48.9074 0
      vertex 5.22642 49.7261 10
      vertex 10.3956 48.9074 10
    endloop
  endfacet
  facet normal 0.156431 0.987689 0
    outer loop
      vertex 5.22642 49.7261 10
      vertex 10.3956 48.9074 0
      vertex 5.22642 49.7261 0
    endloop
  endfacet
  facet normal -0.358358 0.933584 0
    outer loop
      vertex -15.4508 47.5528 0
      vertex -20.3368 45.6773 10
      vertex -15.4508 47.5528 10
    endloop
  endfacet
  facet normal -0.358358 0.933584 0
    outer loop
      vertex -20.3368 45.6773 10
      vertex -15.4508 47.5528 0
      vertex -20.3368 45.6773 0
    endloop
  endfacet
  facet normal -0.838674 -0.544633 0
    outer loop
      vertex -40.4509 -29.3893 0
      vertex -43.3013 -25 10
      vertex -43.3013 -25 0
    endloop
  endfacet
  facet normal -0.838674 -0.544633 0
    outer loop
      vertex -43.3013 -25 10
      vertex -40.4509 -29.3893 0
      vertex -40.4509 -29.3893 10
    endloop
  endfacet
  facet normal -0.729324 -0.195414 0.655667
    outer loop
      vertex -29.3444 -6.23735 33
      vertex -48.9074 -10.3956 10
      vertex -28.5317 -9.27051 33
    endloop
  endfacet
  facet normal -0.475181 -0.586775 0.655667
    outer loop
      vertex -20.0739 -22.2943 33
      vertex -33.4565 -37.1572 10
      vertex -17.6336 -24.2705 33
    endloop
  endfacet
  facet normal -0.704904 -0.27058 0.655666
    outer loop
      vertex -28.5317 -9.27051 33
      vertex -45.6773 -20.3368 10
      vertex -27.4064 -12.2021 33
    endloop
  endfacet
  facet normal -0.707107 0.707107 0
    outer loop
      vertex -37.1572 33.4565 0
      vertex -33.4565 37.1572 10
      vertex -33.4565 37.1572 0
    endloop
  endfacet
  facet normal -0.707107 0.707107 0
    outer loop
      vertex -33.4565 37.1572 10
      vertex -37.1572 33.4565 0
      vertex -37.1572 33.4565 10
    endloop
  endfacet
  facet normal -0.777132 -0.629337 0
    outer loop
      vertex -37.1572 -33.4565 0
      vertex -40.4509 -29.3893 10
      vertex -40.4509 -29.3893 0
    endloop
  endfacet
  facet normal -0.777132 -0.629337 0
    outer loop
      vertex -40.4509 -29.3893 10
      vertex -37.1572 -33.4565 0
      vertex -37.1572 -33.4565 10
    endloop
  endfacet
  facet normal -0.195427 -0.729323 0.655665
    outer loop
      vertex -10.5 -32.3157 28.4245
      vertex -15.4508 -47.5528 10
      vertex -10.5 -48.8794 10
    endloop
  endfacet
  facet normal -0.586774 0.475181 0.655667
    outer loop
      vertex -37.1572 33.4565 10
      vertex -40.4509 29.3893 10
      vertex -24.2705 17.6336 33
    endloop
  endfacet
  facet normal -0.633237 -0.411234 0.655666
    outer loop
      vertex -25.9808 -15 33
      vertex -43.3013 -25 10
      vertex -24.2705 -17.6336 33
    endloop
  endfacet
  facet normal -0.672756 0.342786 0.655666
    outer loop
      vertex -25.9808 15 33
      vertex -45.6773 20.3368 10
      vertex -27.4064 12.2021 33
    endloop
  endfacet
  facet normal -0.729321 -0.19543 0.655666
    outer loop
      vertex -28.5317 -9.27051 33
      vertex -48.9074 -10.3956 10
      vertex -47.5528 -15.4508 10
    endloop
  endfacet
  facet normal -0.672757 -0.342784 0.655666
    outer loop
      vertex -25.9808 -15 33
      vertex -45.6773 -20.3368 10
      vertex -43.3013 -25 10
    endloop
  endfacet
  facet normal 0.754016 0.0395156 0.655666
    outer loop
      vertex 49.7261 5.22642 10
      vertex 30 0 33
      vertex 50 0 10
    endloop
  endfacet
  facet normal -0.672757 0.342784 0.655666
    outer loop
      vertex -43.3013 25 10
      vertex -45.6773 20.3368 10
      vertex -25.9808 15 33
    endloop
  endfacet
  facet normal -0.745756 0.118114 0.655666
    outer loop
      vertex -48.9074 10.3956 10
      vertex -49.7261 5.22642 10
      vertex -29.8357 3.13585 33
    endloop
  endfacet
  facet normal -0.99863 0.052335 0
    outer loop
      vertex -50 0 0
      vertex -49.7261 5.22642 10
      vertex -49.7261 5.22642 0
    endloop
  endfacet
  facet normal -0.99863 0.052335 0
    outer loop
      vertex -49.7261 5.22642 10
      vertex -50 0 0
      vertex -50 0 10
    endloop
  endfacet
  facet normal 0.987689 -0.156431 0
    outer loop
      vertex 48.9074 -10.3956 10
      vertex 49.7261 -5.22642 0
      vertex 49.7261 -5.22642 10
    endloop
  endfacet
  facet normal 0.987689 -0.156431 0
    outer loop
      vertex 49.7261 -5.22642 0
      vertex 48.9074 -10.3956 10
      vertex 48.9074 -10.3956 0
    endloop
  endfacet
  facet normal 0.754018 -0.0395061 0.655665
    outer loop
      vertex 30 0 33
      vertex 29.8357 -3.13585 33
      vertex 49.7261 -5.22642 10
    endloop
  endfacet
  facet normal 0.745756 0.118114 0.655666
    outer loop
      vertex 48.9074 10.3956 10
      vertex 29.8357 3.13585 33
      vertex 49.7261 5.22642 10
    endloop
  endfacet
  facet normal 0.704904 0.27058 0.655666
    outer loop
      vertex 45.6773 20.3368 10
      vertex 27.4064 12.2021 33
      vertex 28.5317 9.27051 33
    endloop
  endfacet
  facet normal -0.729324 0.195414 0.655667
    outer loop
      vertex -28.5317 9.27051 33
      vertex -48.9074 10.3956 10
      vertex -29.3444 6.23735 33
    endloop
  endfacet
  facet normal -0.342784 0.672757 0.655666
    outer loop
      vertex -20.3368 45.6773 10
      vertex -25 43.3013 10
      vertex -15 25.9808 33
    endloop
  endfacet
  facet normal 0.633237 -0.411234 0.655666
    outer loop
      vertex 25.9808 -15 33
      vertex 24.2705 -17.6336 33
      vertex 43.3013 -25 10
    endloop
  endfacet
  facet normal -0.259044 0.965865 0
    outer loop
      vertex -10.3956 48.9074 0
      vertex -10.5 48.8794 10
      vertex -10.3956 48.9074 10
    endloop
  endfacet
  facet normal -0.25883 0.965923 2.39532e-06
    outer loop
      vertex -15.4508 47.5528 0
      vertex -10.5 48.8794 10
      vertex -10.3956 48.9074 0
    endloop
  endfacet
  facet normal -0.258826 0.965924 0
    outer loop
      vertex -10.5 48.8794 10
      vertex -15.4508 47.5528 0
      vertex -15.4508 47.5528 10
    endloop
  endfacet
  facet normal 0.358358 0.933584 -0
    outer loop
      vertex 20.3368 45.6773 0
      vertex 15.4508 47.5528 10
      vertex 20.3368 45.6773 10
    endloop
  endfacet
  facet normal 0.358358 0.933584 0
    outer loop
      vertex 15.4508 47.5528 10
      vertex 20.3368 45.6773 0
      vertex 15.4508 47.5528 0
    endloop
  endfacet
  facet normal 0.965923 0.25883 0
    outer loop
      vertex 48.9074 10.3956 10
      vertex 47.5528 15.4508 0
      vertex 47.5528 15.4508 10
    endloop
  endfacet
  facet normal 0.965923 0.25883 0
    outer loop
      vertex 47.5528 15.4508 0
      vertex 48.9074 10.3956 10
      vertex 48.9074 10.3956 0
    endloop
  endfacet
  facet normal 0.933584 0.358358 0
    outer loop
      vertex 47.5528 15.4508 10
      vertex 45.6773 20.3368 0
      vertex 45.6773 20.3368 10
    endloop
  endfacet
  facet normal 0.933584 0.358358 0
    outer loop
      vertex 45.6773 20.3368 0
      vertex 47.5528 15.4508 10
      vertex 47.5528 15.4508 0
    endloop
  endfacet
  facet normal -0.411234 0.633237 0.655666
    outer loop
      vertex -15 25.9808 33
      vertex -25 43.3013 10
      vertex -17.6336 24.2705 33
    endloop
  endfacet
  facet normal 0.672757 -0.342784 0.655666
    outer loop
      vertex 45.6773 -20.3368 10
      vertex 25.9808 -15 33
      vertex 43.3013 -25 10
    endloop
  endfacet
  facet normal -0.729321 0.19543 0.655666
    outer loop
      vertex -47.5528 15.4508 10
      vertex -48.9074 10.3956 10
      vertex -28.5317 9.27051 33
    endloop
  endfacet
  facet normal 0.586775 -0.475181 0.655667
    outer loop
      vertex 24.2705 -17.6336 33
      vertex 22.2943 -20.0739 33
      vertex 37.1572 -33.4565 10
    endloop
  endfacet
  facet normal 0.704904 -0.27058 0.655666
    outer loop
      vertex 28.5317 -9.27051 33
      vertex 27.4064 -12.2021 33
      vertex 45.6773 -20.3368 10
    endloop
  endfacet
  facet normal -0.704904 0.27058 0.655666
    outer loop
      vertex -27.4064 12.2021 33
      vertex -45.6773 20.3368 10
      vertex -28.5317 9.27051 33
    endloop
  endfacet
  facet normal 0.672756 -0.342786 0.655666
    outer loop
      vertex 27.4064 -12.2021 33
      vertex 25.9808 -15 33
      vertex 45.6773 -20.3368 10
    endloop
  endfacet
  facet normal -0.777132 0.629337 0
    outer loop
      vertex -40.4509 29.3893 0
      vertex -37.1572 33.4565 10
      vertex -37.1572 33.4565 0
    endloop
  endfacet
  facet normal -0.777132 0.629337 0
    outer loop
      vertex -37.1572 33.4565 10
      vertex -40.4509 29.3893 0
      vertex -40.4509 29.3893 10
    endloop
  endfacet
  facet normal 0.270579 -0.704905 0.655664
    outer loop
      vertex 20.3368 -45.6773 10
      vertex 10.5 -32.3157 28.4245
      vertex 15.4508 -47.5528 10
    endloop
  endfacet
  facet normal 0.27059 -0.704899 0.655666
    outer loop
      vertex 10.5 -32.3157 28.4245
      vertex 20.3368 -45.6773 10
      vertex 10.5 -30.4366 30.4447
    endloop
  endfacet
  facet normal 0.745751 -0.118132 0.655668
    outer loop
      vertex 29.8357 -3.13585 33
      vertex 29.3444 -6.23735 33
      vertex 48.9074 -10.3956 10
    endloop
  endfacet
  facet normal 0.342784 0.672757 0.655666
    outer loop
      vertex 20.3368 45.6773 10
      vertex 15 25.9808 33
      vertex 25 43.3013 10
    endloop
  endfacet
  facet normal 0.891008 -0.453988 0
    outer loop
      vertex 43.3013 -25 10
      vertex 45.6773 -20.3368 0
      vertex 45.6773 -20.3368 10
    endloop
  endfacet
  facet normal 0.891008 -0.453988 0
    outer loop
      vertex 45.6773 -20.3368 0
      vertex 43.3013 -25 10
      vertex 43.3013 -25 0
    endloop
  endfacet
  facet normal -0.965923 0.25883 0
    outer loop
      vertex -48.9074 10.3956 0
      vertex -47.5528 15.4508 10
      vertex -47.5528 15.4508 0
    endloop
  endfacet
  facet normal -0.965923 0.25883 0
    outer loop
      vertex -47.5528 15.4508 10
      vertex -48.9074 10.3956 0
      vertex -48.9074 10.3956 10
    endloop
  endfacet
  facet normal -0.533902 -0.533902 0.655666
    outer loop
      vertex -22.2943 -20.0739 33
      vertex -33.4565 -37.1572 10
      vertex -20.0739 -22.2943 33
    endloop
  endfacet
  facet normal -0.533902 -0.533902 0.655666
    outer loop
      vertex -33.4565 -37.1572 10
      vertex -22.2943 -20.0739 33
      vertex -37.1572 -33.4565 10
    endloop
  endfacet
  facet normal 0.411225 -0.633241 0.655667
    outer loop
      vertex 29.3893 -40.4509 10
      vertex 17.6336 -24.2705 33
      vertex 25 -43.3013 10
    endloop
  endfacet
  facet normal 0.411234 -0.633237 0.655666
    outer loop
      vertex 17.6336 -24.2705 33
      vertex 15 -25.9808 33
      vertex 25 -43.3013 10
    endloop
  endfacet
  facet normal -0.987689 0.156431 0
    outer loop
      vertex -49.7261 5.22642 0
      vertex -48.9074 10.3956 10
      vertex -48.9074 10.3956 0
    endloop
  endfacet
  facet normal -0.987689 0.156431 0
    outer loop
      vertex -48.9074 10.3956 10
      vertex -49.7261 5.22642 0
      vertex -49.7261 5.22642 10
    endloop
  endfacet
  facet normal -0.629337 -0.777132 0
    outer loop
      vertex -33.4565 -37.1572 0
      vertex -29.3893 -40.4509 10
      vertex -33.4565 -37.1572 10
    endloop
  endfacet
  facet normal -0.629337 -0.777132 -0
    outer loop
      vertex -29.3893 -40.4509 10
      vertex -33.4565 -37.1572 0
      vertex -29.3893 -40.4509 0
    endloop
  endfacet
  facet normal -0.933584 -0.358358 0
    outer loop
      vertex -45.6773 -20.3368 0
      vertex -47.5528 -15.4508 10
      vertex -47.5528 -15.4508 0
    endloop
  endfacet
  facet normal -0.933584 -0.358358 0
    outer loop
      vertex -47.5528 -15.4508 10
      vertex -45.6773 -20.3368 0
      vertex -45.6773 -20.3368 10
    endloop
  endfacet
  facet normal -0.453988 0.891008 0
    outer loop
      vertex -20.3368 45.6773 0
      vertex -25 43.3013 10
      vertex -20.3368 45.6773 10
    endloop
  endfacet
  facet normal -0.453988 0.891008 0
    outer loop
      vertex -25 43.3013 10
      vertex -20.3368 45.6773 0
      vertex -25 43.3013 0
    endloop
  endfacet
  facet normal -0.475181 -0.586774 0.655667
    outer loop
      vertex -17.6336 -24.2705 33
      vertex -33.4565 -37.1572 10
      vertex -29.3893 -40.4509 10
    endloop
  endfacet
  facet normal 0.475181 -0.586774 0.655667
    outer loop
      vertex 33.4565 -37.1572 10
      vertex 17.6336 -24.2705 33
      vertex 29.3893 -40.4509 10
    endloop
  endfacet
  facet normal -0.27059 -0.704899 0.655666
    outer loop
      vertex -20.3368 -45.6773 10
      vertex -10.5 -32.3157 28.4245
      vertex -10.5 -30.4366 30.4447
    endloop
  endfacet
  facet normal -0.270579 -0.704905 0.655664
    outer loop
      vertex -10.5 -32.3157 28.4245
      vertex -20.3368 -45.6773 10
      vertex -15.4508 -47.5528 10
    endloop
  endfacet
  facet normal -0.707107 -0.707107 0
    outer loop
      vertex -33.4565 -37.1572 0
      vertex -37.1572 -33.4565 10
      vertex -37.1572 -33.4565 0
    endloop
  endfacet
  facet normal -0.707107 -0.707107 0
    outer loop
      vertex -37.1572 -33.4565 10
      vertex -33.4565 -37.1572 0
      vertex -33.4565 -37.1572 10
    endloop
  endfacet
  facet normal 0.475181 -0.586775 0.655667
    outer loop
      vertex 20.0739 -22.2943 33
      vertex 17.6336 -24.2705 33
      vertex 33.4565 -37.1572 10
    endloop
  endfacet
  facet normal -0.745756 -0.118114 0.655666
    outer loop
      vertex -29.8357 -3.13585 33
      vertex -49.7261 -5.22642 10
      vertex -48.9074 -10.3956 10
    endloop
  endfacet
  facet normal -0.754018 -0.0395061 0.655665
    outer loop
      vertex -30 0 33
      vertex -49.7261 -5.22642 10
      vertex -29.8357 -3.13585 33
    endloop
  endfacet
  facet normal -0.544633 -0.838674 0
    outer loop
      vertex -29.3893 -40.4509 0
      vertex -25 -43.3013 10
      vertex -29.3893 -40.4509 10
    endloop
  endfacet
  facet normal -0.544633 -0.838674 -0
    outer loop
      vertex -25 -43.3013 10
      vertex -29.3893 -40.4509 0
      vertex -25 -43.3013 0
    endloop
  endfacet
  facet normal -0.453988 -0.891008 0
    outer loop
      vertex -25 -43.3013 0
      vertex -20.3368 -45.6773 10
      vertex -25 -43.3013 10
    endloop
  endfacet
  facet normal -0.453988 -0.891008 -0
    outer loop
      vertex -20.3368 -45.6773 10
      vertex -25 -43.3013 0
      vertex -20.3368 -45.6773 0
    endloop
  endfacet
  facet normal -0.891008 0.453988 0
    outer loop
      vertex -45.6773 20.3368 0
      vertex -43.3013 25 10
      vertex -43.3013 25 0
    endloop
  endfacet
  facet normal -0.891008 0.453988 0
    outer loop
      vertex -43.3013 25 10
      vertex -45.6773 20.3368 0
      vertex -45.6773 20.3368 10
    endloop
  endfacet
  facet normal 0.270553 0.704897 0.655684
    outer loop
      vertex 12.2021 27.4064 33
      vertex 10.5 30.4366 30.4447
      vertex 10.5 28.0597 33
    endloop
  endfacet
  facet normal 0.270587 0.704901 0.655666
    outer loop
      vertex 10.5 30.4366 30.4447
      vertex 12.2021 27.4064 33
      vertex 20.3368 45.6773 10
    endloop
  endfacet
  facet normal -0.586775 -0.475181 0.655667
    outer loop
      vertex -24.2705 -17.6336 33
      vertex -37.1572 -33.4565 10
      vertex -22.2943 -20.0739 33
    endloop
  endfacet
  facet normal 0.672756 0.342786 0.655666
    outer loop
      vertex 45.6773 20.3368 10
      vertex 25.9808 15 33
      vertex 27.4064 12.2021 33
    endloop
  endfacet
  facet normal -0.745751 0.118132 0.655668
    outer loop
      vertex -29.3444 6.23735 33
      vertex -48.9074 10.3956 10
      vertex -29.8357 3.13585 33
    endloop
  endfacet
  facet normal -0.586775 0.475181 0.655667
    outer loop
      vertex -22.2943 20.0739 33
      vertex -37.1572 33.4565 10
      vertex -24.2705 17.6336 33
    endloop
  endfacet
  facet normal 0.052335 0.99863 -0
    outer loop
      vertex 5.22642 49.7261 0
      vertex 0 50 10
      vertex 5.22642 49.7261 10
    endloop
  endfacet
  facet normal 0.052335 0.99863 0
    outer loop
      vertex 0 50 10
      vertex 5.22642 49.7261 0
      vertex 0 50 0
    endloop
  endfacet
  facet normal 0.704904 0.270579 0.655666
    outer loop
      vertex 45.6773 20.3368 10
      vertex 28.5317 9.27051 33
      vertex 47.5528 15.4508 10
    endloop
  endfacet
  facet normal -0.965923 -0.25883 0
    outer loop
      vertex -47.5528 -15.4508 0
      vertex -48.9074 -10.3956 10
      vertex -48.9074 -10.3956 0
    endloop
  endfacet
  facet normal -0.965923 -0.25883 0
    outer loop
      vertex -48.9074 -10.3956 10
      vertex -47.5528 -15.4508 0
      vertex -47.5528 -15.4508 10
    endloop
  endfacet
  facet normal -0.633241 -0.411225 0.655667
    outer loop
      vertex -24.2705 -17.6336 33
      vertex -43.3013 -25 10
      vertex -40.4509 -29.3893 10
    endloop
  endfacet
  facet normal 0.633237 0.411234 0.655666
    outer loop
      vertex 43.3013 25 10
      vertex 24.2705 17.6336 33
      vertex 25.9808 15 33
    endloop
  endfacet
  facet normal 0.672757 0.342784 0.655666
    outer loop
      vertex 43.3013 25 10
      vertex 25.9808 15 33
      vertex 45.6773 20.3368 10
    endloop
  endfacet
  facet normal 0.99863 0.052335 0
    outer loop
      vertex 50 0 10
      vertex 49.7261 5.22642 0
      vertex 49.7261 5.22642 10
    endloop
  endfacet
  facet normal 0.99863 0.052335 0
    outer loop
      vertex 49.7261 5.22642 0
      vertex 50 0 10
      vertex 50 0 0
    endloop
  endfacet
  facet normal -0.544633 0.838674 0
    outer loop
      vertex -25 43.3013 0
      vertex -29.3893 40.4509 10
      vertex -25 43.3013 10
    endloop
  endfacet
  facet normal -0.544633 0.838674 0
    outer loop
      vertex -29.3893 40.4509 10
      vertex -25 43.3013 0
      vertex -29.3893 40.4509 0
    endloop
  endfacet
  facet normal 0.586775 0.475181 0.655667
    outer loop
      vertex 37.1572 33.4565 10
      vertex 22.2943 20.0739 33
      vertex 24.2705 17.6336 33
    endloop
  endfacet
  facet normal 0.707107 -0.707107 0
    outer loop
      vertex 33.4565 -37.1572 10
      vertex 37.1572 -33.4565 0
      vertex 37.1572 -33.4565 10
    endloop
  endfacet
  facet normal 0.707107 -0.707107 0
    outer loop
      vertex 37.1572 -33.4565 0
      vertex 33.4565 -37.1572 10
      vertex 33.4565 -37.1572 0
    endloop
  endfacet
  facet normal 0.729324 0.195414 0.655667
    outer loop
      vertex 48.9074 10.3956 10
      vertex 28.5317 9.27051 33
      vertex 29.3444 6.23735 33
    endloop
  endfacet
  facet normal 0.745751 0.118132 0.655668
    outer loop
      vertex 48.9074 10.3956 10
      vertex 29.3444 6.23735 33
      vertex 29.8357 3.13585 33
    endloop
  endfacet
  facet normal -0.633237 0.411234 0.655666
    outer loop
      vertex -24.2705 17.6336 33
      vertex -43.3013 25 10
      vertex -25.9808 15 33
    endloop
  endfacet
  facet normal 0.411234 0.633237 0.655666
    outer loop
      vertex 25 43.3013 10
      vertex 15 25.9808 33
      vertex 17.6336 24.2705 33
    endloop
  endfacet
  facet normal 0.411225 0.633241 0.655667
    outer loop
      vertex 25 43.3013 10
      vertex 17.6336 24.2705 33
      vertex 29.3893 40.4509 10
    endloop
  endfacet
  facet normal -0.270579 0.704905 0.655664
    outer loop
      vertex -20.3368 45.6773 10
      vertex -10.5 32.3157 28.4245
      vertex -15.4508 47.5528 10
    endloop
  endfacet
  facet normal -0.27059 0.704899 0.655666
    outer loop
      vertex -10.5 32.3157 28.4245
      vertex -20.3368 45.6773 10
      vertex -10.5 30.4366 30.4447
    endloop
  endfacet
  facet normal -0.195427 0.729323 0.655665
    outer loop
      vertex -10.5 48.8794 10
      vertex -15.4508 47.5528 10
      vertex -10.5 32.3157 28.4245
    endloop
  endfacet
  facet normal 0 0 -1
    outer loop
      vertex 49.7261 -5.22642 0
      vertex 49.7261 5.22642 0
      vertex 50 0 0
    endloop
  endfacet
  facet normal 0 0 -1
    outer loop
      vertex 48.9074 -10.3956 0
      vertex 49.7261 5.22642 0
      vertex 49.7261 -5.22642 0
    endloop
  endfacet
  facet normal 0 0 -1
    outer loop
      vertex 48.9074 -10.3956 0
      vertex 48.9074 10.3956 0
      vertex 49.7261 5.22642 0
    endloop
  endfacet
  facet normal 0 0 -1
    outer loop
      vertex 47.5528 -15.4508 0
      vertex 48.9074 10.3956 0
      vertex 48.9074 -10.3956 0
    endloop
  endfacet
  facet normal 0 0 -1
    outer loop
      vertex 47.5528 -15.4508 0
      vertex 47.5528 15.4508 0
      vertex 48.9074 10.3956 0
    endloop
  endfacet
  facet normal 0 0 -1
    outer loop
      vertex 45.6773 -20.3368 0
      vertex 47.5528 15.4508 0
      vertex 47.5528 -15.4508 0
    endloop
  endfacet
  facet normal 0 0 -1
    outer loop
      vertex 45.6773 -20.3368 0
      vertex 45.6773 20.3368 0
      vertex 47.5528 15.4508 0
    endloop
  endfacet
  facet normal 0 0 -1
    outer loop
      vertex 43.3013 -25 0
      vertex 45.6773 20.3368 0
      vertex 45.6773 -20.3368 0
    endloop
  endfacet
  facet normal 0 0 -1
    outer loop
      vertex 43.3013 -25 0
      vertex 43.3013 25 0
      vertex 45.6773 20.3368 0
    endloop
  endfacet
  facet normal 0 0 -1
    outer loop
      vertex 40.4509 -29.3893 0
      vertex 43.3013 25 0
      vertex 43.3013 -25 0
    endloop
  endfacet
  facet normal 0 0 -1
    outer loop
      vertex 40.4509 -29.3893 0
      vertex 40.4509 29.3893 0
      vertex 43.3013 25 0
    endloop
  endfacet
  facet normal 0 0 -1
    outer loop
      vertex 37.1572 -33.4565 0
      vertex 40.4509 29.3893 0
      vertex 40.4509 -29.3893 0
    endloop
  endfacet
  facet normal 0 0 -1
    outer loop
      vertex 37.1572 -33.4565 0
      vertex 37.1572 33.4565 0
      vertex 40.4509 29.3893 0
    endloop
  endfacet
  facet normal 0 0 -1
    outer loop
      vertex 33.4565 -37.1572 0
      vertex 37.1572 33.4565 0
      vertex 37.1572 -33.4565 0
    endloop
  endfacet
  facet normal 0 0 -1
    outer loop
      vertex 33.4565 -37.1572 0
      vertex 33.4565 37.1572 0
      vertex 37.1572 33.4565 0
    endloop
  endfacet
  facet normal 0 0 -1
    outer loop
      vertex 29.3893 -40.4509 0
      vertex 33.4565 37.1572 0
      vertex 33.4565 -37.1572 0
    endloop
  endfacet
  facet normal 0 0 -1
    outer loop
      vertex 29.3893 -40.4509 0
      vertex 29.3893 40.4509 0
      vertex 33.4565 37.1572 0
    endloop
  endfacet
  facet normal 0 0 -1
    outer loop
      vertex 25 -43.3013 0
      vertex 29.3893 40.4509 0
      vertex 29.3893 -40.4509 0
    endloop
  endfacet
  facet normal 0 0 -1
    outer loop
      vertex 25 -43.3013 0
      vertex 25 43.3013 0
      vertex 29.3893 40.4509 0
    endloop
  endfacet
  facet normal 0 0 -1
    outer loop
      vertex 20.3368 -45.6773 0
      vertex 25 43.3013 0
      vertex 25 -43.3013 0
    endloop
  endfacet
  facet normal 0 0 -1
    outer loop
      vertex 20.3368 -45.6773 0
      vertex 20.3368 45.6773 0
      vertex 25 43.3013 0
    endloop
  endfacet
  facet normal 0 0 -1
    outer loop
      vertex 15.4508 -47.5528 0
      vertex 20.3368 45.6773 0
      vertex 20.3368 -45.6773 0
    endloop
  endfacet
  facet normal 0 0 -1
    outer loop
      vertex 15.4508 -47.5528 0
      vertex 15.4508 47.5528 0
      vertex 20.3368 45.6773 0
    endloop
  endfacet
  facet normal 0 0 -1
    outer loop
      vertex 10.3956 -48.9074 0
      vertex 15.4508 47.5528 0
      vertex 15.4508 -47.5528 0
    endloop
  endfacet
  facet normal 0 0 -1
    outer loop
      vertex 10.3956 -48.9074 0
      vertex 10.3956 48.9074 0
      vertex 15.4508 47.5528 0
    endloop
  endfacet
  facet normal 0 0 -1
    outer loop
      vertex 5.22642 -49.7261 0
      vertex 10.3956 48.9074 0
      vertex 10.3956 -48.9074 0
    endloop
  endfacet
  facet normal 0 0 -1
    outer loop
      vertex 5.22642 -49.7261 0
      vertex 5.22642 49.7261 0
      vertex 10.3956 48.9074 0
    endloop
  endfacet
  facet normal 0 0 -1
    outer loop
      vertex 0 -50 0
      vertex 5.22642 49.7261 0
      vertex 5.22642 -49.7261 0
    endloop
  endfacet
  facet normal 0 0 -1
    outer loop
      vertex 0 -50 0
      vertex 0 50 0
      vertex 5.22642 49.7261 0
    endloop
  endfacet
  facet normal 0 0 -1
    outer loop
      vertex -5.22642 -49.7261 0
      vertex 0 50 0
      vertex 0 -50 0
    endloop
  endfacet
  facet normal 0 0 -1
    outer loop
      vertex -5.22642 -49.7261 0
      vertex -5.22642 49.7261 0
      vertex 0 50 0
    endloop
  endfacet
  facet normal 0 0 -1
    outer loop
      vertex -10.3956 -48.9074 0
      vertex -5.22642 49.7261 0
      vertex -5.22642 -49.7261 0
    endloop
  endfacet
  facet normal 0 0 -1
    outer loop
      vertex -10.3956 -48.9074 0
      vertex -10.3956 48.9074 0
      vertex -5.22642 49.7261 0
    endloop
  endfacet
  facet normal 0 0 -1
    outer loop
      vertex -15.4508 -47.5528 0
      vertex -10.3956 48.9074 0
      vertex -10.3956 -48.9074 0
    endloop
  endfacet
  facet normal 0 0 -1
    outer loop
      vertex -15.4508 -47.5528 0
      vertex -15.4508 47.5528 0
      vertex -10.3956 48.9074 0
    endloop
  endfacet
  facet normal 0 0 -1
    outer loop
      vertex -20.3368 -45.6773 0
      vertex -15.4508 47.5528 0
      vertex -15.4508 -47.5528 0
    endloop
  endfacet
  facet normal 0 0 -1
    outer loop
      vertex -20.3368 -45.6773 0
      vertex -20.3368 45.6773 0
      vertex -15.4508 47.5528 0
    endloop
  endfacet
  facet normal 0 0 -1
    outer loop
      vertex -25 -43.3013 0
      vertex -20.3368 45.6773 0
      vertex -20.3368 -45.6773 0
    endloop
  endfacet
  facet normal 0 0 -1
    outer loop
      vertex -25 -43.3013 0
      vertex -25 43.3013 0
      vertex -20.3368 45.6773 0
    endloop
  endfacet
  facet normal 0 0 -1
    outer loop
      vertex -29.3893 -40.4509 0
      vertex -25 43.3013 0
      vertex -25 -43.3013 0
    endloop
  endfacet
  facet normal 0 0 -1
    outer loop
      vertex -29.3893 -40.4509 0
      vertex -29.3893 40.4509 0
      vertex -25 43.3013 0
    endloop
  endfacet
  facet normal 0 0 -1
    outer loop
      vertex -33.4565 -37.1572 0
      vertex -29.3893 40.4509 0
      vertex -29.3893 -40.4509 0
    endloop
  endfacet
  facet normal 0 0 -1
    outer loop
      vertex -33.4565 -37.1572 0
      vertex -33.4565 37.1572 0
      vertex -29.3893 40.4509 0
    endloop
  endfacet
  facet normal 0 0 -1
    outer loop
      vertex -37.1572 -33.4565 0
      vertex -33.4565 37.1572 0
      vertex -33.4565 -37.1572 0
    endloop
  endfacet
  facet normal 0 0 -1
    outer loop
      vertex -37.1572 -33.4565 0
      vertex -37.1572 33.4565 0
      vertex -33.4565 37.1572 0
    endloop
  endfacet
  facet normal 0 0 -1
    outer loop
      vertex -40.4509 -29.3893 0
      vertex -37.1572 33.4565 0
      vertex -37.1572 -33.4565 0
    endloop
  endfacet
  facet normal 0 0 -1
    outer loop
      vertex -40.4509 -29.3893 0
      vertex -40.4509 29.3893 0
      vertex -37.1572 33.4565 0
    endloop
  endfacet
  facet normal 0 0 -1
    outer loop
      vertex -43.3013 -25 0
      vertex -40.4509 29.3893 0
      vertex -40.4509 -29.3893 0
    endloop
  endfacet
  facet normal 0 0 -1
    outer loop
      vertex -43.3013 -25 0
      vertex -43.3013 25 0
      vertex -40.4509 29.3893 0
    endloop
  endfacet
  facet normal 0 0 -1
    outer loop
      vertex -45.6773 -20.3368 0
      vertex -43.3013 25 0
      vertex -43.3013 -25 0
    endloop
  endfacet
  facet normal 0 0 -1
    outer loop
      vertex -45.6773 -20.3368 0
      vertex -45.6773 20.3368 0
      vertex -43.3013 25 0
    endloop
  endfacet
  facet normal 0 0 -1
    outer loop
      vertex -47.5528 -15.4508 0
      vertex -45.6773 20.3368 0
      vertex -45.6773 -20.3368 0
    endloop
  endfacet
  facet normal 0 0 -1
    outer loop
      vertex -47.5528 -15.4508 0
      vertex -47.5528 15.4508 0
      vertex -45.6773 20.3368 0
    endloop
  endfacet
  facet normal 0 0 -1
    outer loop
      vertex -48.9074 -10.3956 0
      vertex -47.5528 15.4508 0
      vertex -47.5528 -15.4508 0
    endloop
  endfacet
  facet normal 0 0 -1
    outer loop
      vertex -48.9074 -10.3956 0
      vertex -48.9074 10.3956 0
      vertex -47.5528 15.4508 0
    endloop
  endfacet
  facet normal 0 0 -1
    outer loop
      vertex -49.7261 -5.22642 0
      vertex -48.9074 10.3956 0
      vertex -48.9074 -10.3956 0
    endloop
  endfacet
  facet normal 0 0 -1
    outer loop
      vertex -49.7261 -5.22642 0
      vertex -49.7261 5.22642 0
      vertex -48.9074 10.3956 0
    endloop
  endfacet
  facet normal 0 -0 -1
    outer loop
      vertex -49.7261 5.22642 0
      vertex -49.7261 -5.22642 0
      vertex -50 0 0
    endloop
  endfacet
  facet normal 0.544633 0.838674 -0
    outer loop
      vertex 29.3893 40.4509 0
      vertex 25 43.3013 10
      vertex 29.3893 40.4509 10
    endloop
  endfacet
  facet normal 0.544633 0.838674 0
    outer loop
      vertex 25 43.3013 10
      vertex 29.3893 40.4509 0
      vertex 25 43.3013 0
    endloop
  endfacet
  facet normal 0.729321 -0.19543 0.655666
    outer loop
      vertex 48.9074 -10.3956 10
      vertex 28.5317 -9.27051 33
      vertex 47.5528 -15.4508 10
    endloop
  endfacet
  facet normal -0.987689 -0.156431 0
    outer loop
      vertex -48.9074 -10.3956 0
      vertex -49.7261 -5.22642 10
      vertex -49.7261 -5.22642 0
    endloop
  endfacet
  facet normal -0.987689 -0.156431 0
    outer loop
      vertex -49.7261 -5.22642 10
      vertex -48.9074 -10.3956 0
      vertex -48.9074 -10.3956 10
    endloop
  endfacet
  facet normal 0.453988 -0.891008 0
    outer loop
      vertex 20.3368 -45.6773 0
      vertex 25 -43.3013 10
      vertex 20.3368 -45.6773 10
    endloop
  endfacet
  facet normal 0.453988 -0.891008 0
    outer loop
      vertex 25 -43.3013 10
      vertex 20.3368 -45.6773 0
      vertex 25 -43.3013 0
    endloop
  endfacet
  facet normal -0.358358 -0.933584 0
    outer loop
      vertex -20.3368 -45.6773 0
      vertex -15.4508 -47.5528 10
      vertex -20.3368 -45.6773 10
    endloop
  endfacet
  facet normal -0.358358 -0.933584 -0
    outer loop
      vertex -15.4508 -47.5528 10
      vertex -20.3368 -45.6773 0
      vertex -15.4508 -47.5528 0
    endloop
  endfacet
  facet normal 0 0 1
    outer loop
      vertex 29.8357 3.13585 33
      vertex 29.8357 -3.13585 33
      vertex 30 0 33
    endloop
  endfacet
  facet normal 0 0 1
    outer loop
      vertex 29.3444 6.23735 33
      vertex 29.8357 -3.13585 33
      vertex 29.8357 3.13585 33
    endloop
  endfacet
  facet normal 0 0 1
    outer loop
      vertex 29.3444 6.23735 33
      vertex 29.3444 -6.23735 33
      vertex 29.8357 -3.13585 33
    endloop
  endfacet
  facet normal 0 0 1
    outer loop
      vertex 28.5317 9.27051 33
      vertex 29.3444 -6.23735 33
      vertex 29.3444 6.23735 33
    endloop
  endfacet
  facet normal 0 0 1
    outer loop
      vertex 28.5317 9.27051 33
      vertex 28.5317 -9.27051 33
      vertex 29.3444 -6.23735 33
    endloop
  endfacet
  facet normal 0 0 1
    outer loop
      vertex 27.4064 12.2021 33
      vertex 28.5317 -9.27051 33
      vertex 28.5317 9.27051 33
    endloop
  endfacet
  facet normal 0 0 1
    outer loop
      vertex 27.4064 12.2021 33
      vertex 27.4064 -12.2021 33
      vertex 28.5317 -9.27051 33
    endloop
  endfacet
  facet normal 0 0 1
    outer loop
      vertex 25.9808 15 33
      vertex 27.4064 -12.2021 33
      vertex 27.4064 12.2021 33
    endloop
  endfacet
  facet normal 0 0 1
    outer loop
      vertex 25.9808 15 33
      vertex 25.9808 -15 33
      vertex 27.4064 -12.2021 33
    endloop
  endfacet
  facet normal 0 0 1
    outer loop
      vertex 24.2705 17.6336 33
      vertex 25.9808 -15 33
      vertex 25.9808 15 33
    endloop
  endfacet
  facet normal 0 0 1
    outer loop
      vertex 24.2705 17.6336 33
      vertex 24.2705 -17.6336 33
      vertex 25.9808 -15 33
    endloop
  endfacet
  facet normal 0 0 1
    outer loop
      vertex 22.2943 20.0739 33
      vertex 24.2705 -17.6336 33
      vertex 24.2705 17.6336 33
    endloop
  endfacet
  facet normal 0 0 1
    outer loop
      vertex 22.2943 20.0739 33
      vertex 22.2943 -20.0739 33
      vertex 24.2705 -17.6336 33
    endloop
  endfacet
  facet normal 0 0 1
    outer loop
      vertex 20.0739 22.2943 33
      vertex 22.2943 -20.0739 33
      vertex 22.2943 20.0739 33
    endloop
  endfacet
  facet normal 0 0 1
    outer loop
      vertex 20.0739 22.2943 33
      vertex 20.0739 -22.2943 33
      vertex 22.2943 -20.0739 33
    endloop
  endfacet
  facet normal 0 0 1
    outer loop
      vertex 17.6336 24.2705 33
      vertex 20.0739 -22.2943 33
      vertex 20.0739 22.2943 33
    endloop
  endfacet
  facet normal 0 0 1
    outer loop
      vertex 17.6336 24.2705 33
      vertex 17.6336 -24.2705 33
      vertex 20.0739 -22.2943 33
    endloop
  endfacet
  facet normal 0 0 1
    outer loop
      vertex 15 25.9808 33
      vertex 17.6336 -24.2705 33
      vertex 17.6336 24.2705 33
    endloop
  endfacet
  facet normal 0 0 1
    outer loop
      vertex 15 25.9808 33
      vertex 15 -25.9808 33
      vertex 17.6336 -24.2705 33
    endloop
  endfacet
  facet normal 0 0 1
    outer loop
      vertex 10.5 28.0597 33
      vertex 15 25.9808 33
      vertex 12.2021 27.4064 33
    endloop
  endfacet
  facet normal 0 0 1
    outer loop
      vertex 15 25.9808 33
      vertex 10.5 28.0597 33
      vertex 15 -25.9808 33
    endloop
  endfacet
  facet normal 0 0 1
    outer loop
      vertex 10.5 -28.0597 33
      vertex 15 -25.9808 33
      vertex 10.5 28.0597 33
    endloop
  endfacet
  facet normal 0 0 1
    outer loop
      vertex 15 -25.9808 33
      vertex 10.5 -28.0597 33
      vertex 12.2021 -27.4064 33
    endloop
  endfacet
  facet normal 0 0 1
    outer loop
      vertex -15 25.9808 33
      vertex -10.5 28.0597 33
      vertex -12.2021 27.4064 33
    endloop
  endfacet
  facet normal 0 0 1
    outer loop
      vertex -10.5 28.0597 33
      vertex -15 25.9808 33
      vertex -10.5 -28.0597 33
    endloop
  endfacet
  facet normal -0 0 1
    outer loop
      vertex -15 -25.9808 33
      vertex -10.5 -28.0597 33
      vertex -15 25.9808 33
    endloop
  endfacet
  facet normal 0 0 1
    outer loop
      vertex -10.5 -28.0597 33
      vertex -15 -25.9808 33
      vertex -12.2021 -27.4064 33
    endloop
  endfacet
  facet normal -0 0 1
    outer loop
      vertex -17.6336 24.2705 33
      vertex -15 -25.9808 33
      vertex -15 25.9808 33
    endloop
  endfacet
  facet normal 0 0 1
    outer loop
      vertex -17.6336 24.2705 33
      vertex -17.6336 -24.2705 33
      vertex -15 -25.9808 33
    endloop
  endfacet
  facet normal -0 0 1
    outer loop
      vertex -20.0739 22.2943 33
      vertex -17.6336 -24.2705 33
      vertex -17.6336 24.2705 33
    endloop
  endfacet
  facet normal 0 0 1
    outer loop
      vertex -20.0739 22.2943 33
      vertex -20.0739 -22.2943 33
      vertex -17.6336 -24.2705 33
    endloop
  endfacet
  facet normal -0 0 1
    outer loop
      vertex -22.2943 20.0739 33
      vertex -20.0739 -22.2943 33
      vertex -20.0739 22.2943 33
    endloop
  endfacet
  facet normal 0 0 1
    outer loop
      vertex -22.2943 20.0739 33
      vertex -22.2943 -20.0739 33
      vertex -20.0739 -22.2943 33
    endloop
  endfacet
  facet normal -0 0 1
    outer loop
      vertex -24.2705 17.6336 33
      vertex -22.2943 -20.0739 33
      vertex -22.2943 20.0739 33
    endloop
  endfacet
  facet normal 0 0 1
    outer loop
      vertex -24.2705 17.6336 33
      vertex -24.2705 -17.6336 33
      vertex -22.2943 -20.0739 33
    endloop
  endfacet
  facet normal -0 0 1
    outer loop
      vertex -25.9808 15 33
      vertex -24.2705 -17.6336 33
      vertex -24.2705 17.6336 33
    endloop
  endfacet
  facet normal 0 0 1
    outer loop
      vertex -25.9808 15 33
      vertex -25.9808 -15 33
      vertex -24.2705 -17.6336 33
    endloop
  endfacet
  facet normal -0 0 1
    outer loop
      vertex -27.4064 12.2021 33
      vertex -25.9808 -15 33
      vertex -25.9808 15 33
    endloop
  endfacet
  facet normal 0 0 1
    outer loop
      vertex -27.4064 12.2021 33
      vertex -27.4064 -12.2021 33
      vertex -25.9808 -15 33
    endloop
  endfacet
  facet normal -0 0 1
    outer loop
      vertex -28.5317 9.27051 33
      vertex -27.4064 -12.2021 33
      vertex -27.4064 12.2021 33
    endloop
  endfacet
  facet normal 0 0 1
    outer loop
      vertex -28.5317 9.27051 33
      vertex -28.5317 -9.27051 33
      vertex -27.4064 -12.2021 33
    endloop
  endfacet
  facet normal -0 0 1
    outer loop
      vertex -29.3444 6.23735 33
      vertex -28.5317 -9.27051 33
      vertex -28.5317 9.27051 33
    endloop
  endfacet
  facet normal 0 0 1
    outer loop
      vertex -29.3444 6.23735 33
      vertex -29.3444 -6.23735 33
      vertex -28.5317 -9.27051 33
    endloop
  endfacet
  facet normal -0 0 1
    outer loop
      vertex -29.8357 3.13585 33
      vertex -29.3444 -6.23735 33
      vertex -29.3444 6.23735 33
    endloop
  endfacet
  facet normal 0 0 1
    outer loop
      vertex -29.8357 3.13585 33
      vertex -29.8357 -3.13585 33
      vertex -29.3444 -6.23735 33
    endloop
  endfacet
  facet normal 0 -0 1
    outer loop
      vertex -29.8357 -3.13585 33
      vertex -29.8357 3.13585 33
      vertex -30 0 33
    endloop
  endfacet
  facet normal 0.838674 0.544633 0
    outer loop
      vertex 43.3013 25 10
      vertex 40.4509 29.3893 0
      vertex 40.4509 29.3893 10
    endloop
  endfacet
  facet normal 0.838674 0.544633 0
    outer loop
      vertex 40.4509 29.3893 0
      vertex 43.3013 25 10
      vertex 43.3013 25 0
    endloop
  endfacet
  facet normal 0.633241 0.411225 0.655667
    outer loop
      vertex 40.4509 29.3893 10
      vertex 24.2705 17.6336 33
      vertex 43.3013 25 10
    endloop
  endfacet
  facet normal 0.729321 0.19543 0.655666
    outer loop
      vertex 47.5528 15.4508 10
      vertex 28.5317 9.27051 33
      vertex 48.9074 10.3956 10
    endloop
  endfacet
  facet normal -0.586774 -0.475181 0.655667
    outer loop
      vertex -24.2705 -17.6336 33
      vertex -40.4509 -29.3893 10
      vertex -37.1572 -33.4565 10
    endloop
  endfacet
  facet normal 0.965923 -0.25883 0
    outer loop
      vertex 47.5528 -15.4508 10
      vertex 48.9074 -10.3956 0
      vertex 48.9074 -10.3956 10
    endloop
  endfacet
  facet normal 0.965923 -0.25883 0
    outer loop
      vertex 48.9074 -10.3956 0
      vertex 47.5528 -15.4508 10
      vertex 47.5528 -15.4508 0
    endloop
  endfacet
  facet normal 0.704904 -0.270579 0.655666
    outer loop
      vertex 47.5528 -15.4508 10
      vertex 28.5317 -9.27051 33
      vertex 45.6773 -20.3368 10
    endloop
  endfacet
  facet normal -0.745751 -0.118132 0.655668
    outer loop
      vertex -29.8357 -3.13585 33
      vertex -48.9074 -10.3956 10
      vertex -29.3444 -6.23735 33
    endloop
  endfacet
  facet normal -0.891008 -0.453988 0
    outer loop
      vertex -43.3013 -25 0
      vertex -45.6773 -20.3368 10
      vertex -45.6773 -20.3368 0
    endloop
  endfacet
  facet normal -0.891008 -0.453988 0
    outer loop
      vertex -45.6773 -20.3368 10
      vertex -43.3013 -25 0
      vertex -43.3013 -25 10
    endloop
  endfacet
  facet normal -1 0 0
    outer loop
      vertex 10.5 -32.3157 28.4245
      vertex 10.5 32.3157 28.4245
      vertex 10.5 48.8794 10
    endloop
  endfacet
  facet normal -1 0 0
    outer loop
      vertex 10.5 32.3157 28.4245
      vertex 10.5 -32.3157 28.4245
      vertex 10.5 30.4366 30.4447
    endloop
  endfacet
  facet normal -1 0 -0
    outer loop
      vertex 10.5 -30.4366 30.4447
      vertex 10.5 30.4366 30.4447
      vertex 10.5 -32.3157 28.4245
    endloop
  endfacet
  facet normal -1 -0 0
    outer loop
      vertex 10.5 28.0597 33
      vertex 10.5 -30.4366 30.4447
      vertex 10.5 -28.0597 33
    endloop
  endfacet
  facet normal -1 0 0
    outer loop
      vertex 10.5 30.4366 30.4447
      vertex 10.5 -30.4366 30.4447
      vertex 10.5 28.0597 33
    endloop
  endfacet
  facet normal -1 0 -0
    outer loop
      vertex 10.5 -32.3157 28.4245
      vertex 10.5 48.8794 10
      vertex 10.5 -48.8794 10
    endloop
  endfacet
  facet normal 0 0 1
    outer loop
      vertex 5.22642 49.7261 10
      vertex 10.5 48.8794 10
      vertex 10.3956 48.9074 10
    endloop
  endfacet
  facet normal 0 0 1
    outer loop
      vertex 10.5 48.8794 10
      vertex 5.22642 49.7261 10
      vertex 10.5 -48.8794 10
    endloop
  endfacet
  facet normal 0 0 1
    outer loop
      vertex 5.22642 -49.7261 10
      vertex 10.5 -48.8794 10
      vertex 5.22642 49.7261 10
    endloop
  endfacet
  facet normal 0 0 1
    outer loop
      vertex 10.5 -48.8794 10
      vertex 5.22642 -49.7261 10
      vertex 10.3956 -48.9074 10
    endloop
  endfacet
  facet normal 0 0 1
    outer loop
      vertex 0 50 10
      vertex 5.22642 -49.7261 10
      vertex 5.22642 49.7261 10
    endloop
  endfacet
  facet normal 0 0 1
    outer loop
      vertex 0 50 10
      vertex 0 -50 10
      vertex 5.22642 -49.7261 10
    endloop
  endfacet
  facet normal -0 0 1
    outer loop
      vertex -5.22642 49.7261 10
      vertex 0 -50 10
      vertex 0 50 10
    endloop
  endfacet
  facet normal 0 0 1
    outer loop
      vertex -5.22642 49.7261 10
      vertex -5.22642 -49.7261 10
      vertex 0 -50 10
    endloop
  endfacet
  facet normal 0 0 1
    outer loop
      vertex -10.5 48.8794 10
      vertex -5.22642 49.7261 10
      vertex -10.3956 48.9074 10
    endloop
  endfacet
  facet normal 0 0 1
    outer loop
      vertex -5.22642 49.7261 10
      vertex -10.5 48.8794 10
      vertex -5.22642 -49.7261 10
    endloop
  endfacet
  facet normal -0 0 1
    outer loop
      vertex -10.5 -48.8794 10
      vertex -5.22642 -49.7261 10
      vertex -10.5 48.8794 10
    endloop
  endfacet
  facet normal 0 0 1
    outer loop
      vertex -5.22642 -49.7261 10
      vertex -10.5 -48.8794 10
      vertex -10.3956 -48.9074 10
    endloop
  endfacet
  facet normal 1 0 0
    outer loop
      vertex -10.5 -32.3157 28.4245
      vertex -10.5 32.3157 28.4245
      vertex -10.5 30.4366 30.4447
    endloop
  endfacet
  facet normal 1 0 0
    outer loop
      vertex -10.5 -30.4366 30.4447
      vertex -10.5 30.4366 30.4447
      vertex -10.5 28.0597 33
    endloop
  endfacet
  facet normal 1 0 0
    outer loop
      vertex -10.5 -30.4366 30.4447
      vertex -10.5 28.0597 33
      vertex -10.5 -28.0597 33
    endloop
  endfacet
  facet normal 1 0 0
    outer loop
      vertex -10.5 30.4366 30.4447
      vertex -10.5 -30.4366 30.4447
      vertex -10.5 -32.3157 28.4245
    endloop
  endfacet
  facet normal 1 0 0
    outer loop
      vertex -10.5 32.3157 28.4245
      vertex -10.5 -32.3157 28.4245
      vertex -10.5 48.8794 10
    endloop
  endfacet
  facet normal 1 0 0
    outer loop
      vertex -10.5 48.8794 10
      vertex -10.5 -32.3157 28.4245
      vertex -10.5 -48.8794 10
    endloop
  endfacet
endsolid OpenSCAD_Model
