solid OpenSCAD_Model
  facet normal 0.620192 -0.166186 0.766644
    outer loop
      vertex 24.4537 -5.19779 33
      vertex 23.7764 -7.72542 33
      vertex 49.9305 -16.2234 10
    endloop
  endfacet
  facet normal 0.454014 -0.454014 0.766644
    outer loop
      vertex 18.5786 -16.7283 33
      vertex 35.1294 -39.0151 10
      vertex 39.0151 -35.1294 10
    endloop
  endfacet
  facet normal 0.454014 -0.454014 0.766644
    outer loop
      vertex 35.1294 -39.0151 10
      vertex 18.5786 -16.7283 33
      vertex 16.7283 -18.5786 33
    endloop
  endfacet
  facet normal -0.230117 0.599421 0.766642
    outer loop
      vertex -10.25 31.5463 26.1672
      vertex -16.2234 49.9305 10
      vertex -10.25 23.2037 32.6901
    endloop
  endfacet
  facet normal 0.620197 -0.166173 0.766643
    outer loop
      vertex 51.3527 -10.9154 10
      vertex 24.4537 -5.19779 33
      vertex 49.9305 -16.2234 10
    endloop
  endfacet
  facet normal -0.634169 0.100428 0.766645
    outer loop
      vertex -24.4537 5.19779 33
      vertex -52.2124 5.48774 10
      vertex -24.863 2.61321 33
    endloop
  endfacet
  facet normal 0.620192 0.166186 0.766644
    outer loop
      vertex 49.9305 16.2234 10
      vertex 23.7764 7.72542 33
      vertex 24.4537 5.19779 33
    endloop
  endfacet
  facet normal 0.230117 -0.599421 0.766642
    outer loop
      vertex 10.25 -23.2037 32.6901
      vertex 10.25 -31.5463 26.1672
      vertex 16.2234 -49.9305 10
    endloop
  endfacet
  facet normal -0.15645 -0.987686 0
    outer loop
      vertex -10.9154 -51.3527 0
      vertex -10.25 -51.4581 10
      vertex -10.9154 -51.3527 10
    endloop
  endfacet
  facet normal -0.156442 -0.987687 -5.63825e-07
    outer loop
      vertex -5.48774 -52.2124 0
      vertex -10.25 -51.4581 10
      vertex -10.9154 -51.3527 0
    endloop
  endfacet
  facet normal -0.156441 -0.987687 0
    outer loop
      vertex -10.25 -51.4581 10
      vertex -5.48774 -52.2124 0
      vertex -5.48774 -52.2124 10
    endloop
  endfacet
  facet normal 0.987687 0.156442 0
    outer loop
      vertex 52.2124 5.48774 10
      vertex 51.3527 10.9154 0
      vertex 51.3527 10.9154 10
    endloop
  endfacet
  facet normal 0.987687 0.156442 0
    outer loop
      vertex 51.3527 10.9154 0
      vertex 52.2124 5.48774 10
      vertex 52.2124 5.48774 0
    endloop
  endfacet
  facet normal -0.544636 0.838673 0
    outer loop
      vertex -26.25 45.4663 0
      vertex -30.8587 42.4734 10
      vertex -26.25 45.4663 10
    endloop
  endfacet
  facet normal -0.544636 0.838673 0
    outer loop
      vertex -30.8587 42.4734 10
      vertex -26.25 45.4663 0
      vertex -30.8587 42.4734 0
    endloop
  endfacet
  facet normal 0.599424 0.230105 0.766644
    outer loop
      vertex 47.9611 21.3537 10
      vertex 22.8386 10.1684 33
      vertex 49.9305 16.2234 10
    endloop
  endfacet
  facet normal 0.544636 -0.838673 0
    outer loop
      vertex 26.25 -45.4663 0
      vertex 30.8587 -42.4734 10
      vertex 26.25 -45.4663 10
    endloop
  endfacet
  facet normal 0.544636 -0.838673 0
    outer loop
      vertex 30.8587 -42.4734 10
      vertex 26.25 -45.4663 0
      vertex 30.8587 -42.4734 0
    endloop
  endfacet
  facet normal 0.99863 0.0523359 0
    outer loop
      vertex 52.5 0 10
      vertex 52.2124 5.48774 0
      vertex 52.2124 5.48774 10
    endloop
  endfacet
  facet normal 0.99863 0.0523359 0
    outer loop
      vertex 52.2124 5.48774 0
      vertex 52.5 0 10
      vertex 52.5 0 0
    endloop
  endfacet
  facet normal -0.599424 -0.230104 0.766644
    outer loop
      vertex -23.7764 -7.72542 33
      vertex -49.9305 -16.2234 10
      vertex -22.8386 -10.1684 33
    endloop
  endfacet
  facet normal 0.572092 -0.291493 0.766644
    outer loop
      vertex 22.8386 -10.1684 33
      vertex 21.6506 -12.5 33
      vertex 45.4663 -26.25 10
    endloop
  endfacet
  facet normal 0 0 -1
    outer loop
      vertex 52.2124 -5.48774 0
      vertex 52.2124 5.48774 0
      vertex 52.5 0 0
    endloop
  endfacet
  facet normal 0 0 -1
    outer loop
      vertex 51.3527 -10.9154 0
      vertex 52.2124 5.48774 0
      vertex 52.2124 -5.48774 0
    endloop
  endfacet
  facet normal 0 0 -1
    outer loop
      vertex 51.3527 -10.9154 0
      vertex 51.3527 10.9154 0
      vertex 52.2124 5.48774 0
    endloop
  endfacet
  facet normal 0 0 -1
    outer loop
      vertex 49.9305 -16.2234 0
      vertex 51.3527 10.9154 0
      vertex 51.3527 -10.9154 0
    endloop
  endfacet
  facet normal 0 0 -1
    outer loop
      vertex 49.9305 -16.2234 0
      vertex 49.9305 16.2234 0
      vertex 51.3527 10.9154 0
    endloop
  endfacet
  facet normal 0 0 -1
    outer loop
      vertex 47.9611 -21.3537 0
      vertex 49.9305 16.2234 0
      vertex 49.9305 -16.2234 0
    endloop
  endfacet
  facet normal 0 0 -1
    outer loop
      vertex 47.9611 -21.3537 0
      vertex 47.9611 21.3537 0
      vertex 49.9305 16.2234 0
    endloop
  endfacet
  facet normal 0 0 -1
    outer loop
      vertex 45.4663 -26.25 0
      vertex 47.9611 21.3537 0
      vertex 47.9611 -21.3537 0
    endloop
  endfacet
  facet normal 0 0 -1
    outer loop
      vertex 45.4663 -26.25 0
      vertex 45.4663 26.25 0
      vertex 47.9611 21.3537 0
    endloop
  endfacet
  facet normal 0 0 -1
    outer loop
      vertex 42.4734 -30.8587 0
      vertex 45.4663 26.25 0
      vertex 45.4663 -26.25 0
    endloop
  endfacet
  facet normal 0 0 -1
    outer loop
      vertex 42.4734 -30.8587 0
      vertex 42.4734 30.8587 0
      vertex 45.4663 26.25 0
    endloop
  endfacet
  facet normal 0 0 -1
    outer loop
      vertex 39.0151 -35.1294 0
      vertex 42.4734 30.8587 0
      vertex 42.4734 -30.8587 0
    endloop
  endfacet
  facet normal 0 0 -1
    outer loop
      vertex 39.0151 -35.1294 0
      vertex 39.0151 35.1294 0
      vertex 42.4734 30.8587 0
    endloop
  endfacet
  facet normal 0 0 -1
    outer loop
      vertex 35.1294 -39.0151 0
      vertex 39.0151 35.1294 0
      vertex 39.0151 -35.1294 0
    endloop
  endfacet
  facet normal 0 0 -1
    outer loop
      vertex 35.1294 -39.0151 0
      vertex 35.1294 39.0151 0
      vertex 39.0151 35.1294 0
    endloop
  endfacet
  facet normal 0 0 -1
    outer loop
      vertex 30.8587 -42.4734 0
      vertex 35.1294 39.0151 0
      vertex 35.1294 -39.0151 0
    endloop
  endfacet
  facet normal 0 0 -1
    outer loop
      vertex 30.8587 -42.4734 0
      vertex 30.8587 42.4734 0
      vertex 35.1294 39.0151 0
    endloop
  endfacet
  facet normal 0 0 -1
    outer loop
      vertex 26.25 -45.4663 0
      vertex 30.8587 42.4734 0
      vertex 30.8587 -42.4734 0
    endloop
  endfacet
  facet normal 0 0 -1
    outer loop
      vertex 26.25 -45.4663 0
      vertex 26.25 45.4663 0
      vertex 30.8587 42.4734 0
    endloop
  endfacet
  facet normal 0 0 -1
    outer loop
      vertex 21.3537 -47.9611 0
      vertex 26.25 45.4663 0
      vertex 26.25 -45.4663 0
    endloop
  endfacet
  facet normal 0 0 -1
    outer loop
      vertex 21.3537 -47.9611 0
      vertex 21.3537 47.9611 0
      vertex 26.25 45.4663 0
    endloop
  endfacet
  facet normal 0 0 -1
    outer loop
      vertex 16.2234 -49.9305 0
      vertex 21.3537 47.9611 0
      vertex 21.3537 -47.9611 0
    endloop
  endfacet
  facet normal 0 0 -1
    outer loop
      vertex 16.2234 -49.9305 0
      vertex 16.2234 49.9305 0
      vertex 21.3537 47.9611 0
    endloop
  endfacet
  facet normal 0 0 -1
    outer loop
      vertex 10.9154 -51.3527 0
      vertex 16.2234 49.9305 0
      vertex 16.2234 -49.9305 0
    endloop
  endfacet
  facet normal 0 0 -1
    outer loop
      vertex 10.9154 -51.3527 0
      vertex 10.9154 51.3527 0
      vertex 16.2234 49.9305 0
    endloop
  endfacet
  facet normal 0 0 -1
    outer loop
      vertex 5.48774 -52.2124 0
      vertex 10.9154 51.3527 0
      vertex 10.9154 -51.3527 0
    endloop
  endfacet
  facet normal 0 0 -1
    outer loop
      vertex 5.48774 -52.2124 0
      vertex 5.48774 52.2124 0
      vertex 10.9154 51.3527 0
    endloop
  endfacet
  facet normal 0 0 -1
    outer loop
      vertex 0 -52.5 0
      vertex 5.48774 52.2124 0
      vertex 5.48774 -52.2124 0
    endloop
  endfacet
  facet normal 0 0 -1
    outer loop
      vertex 0 -52.5 0
      vertex 0 52.5 0
      vertex 5.48774 52.2124 0
    endloop
  endfacet
  facet normal 0 0 -1
    outer loop
      vertex -5.48774 -52.2124 0
      vertex 0 52.5 0
      vertex 0 -52.5 0
    endloop
  endfacet
  facet normal 0 0 -1
    outer loop
      vertex -5.48774 -52.2124 0
      vertex -5.48774 52.2124 0
      vertex 0 52.5 0
    endloop
  endfacet
  facet normal 0 0 -1
    outer loop
      vertex -10.9154 -51.3527 0
      vertex -5.48774 52.2124 0
      vertex -5.48774 -52.2124 0
    endloop
  endfacet
  facet normal 0 0 -1
    outer loop
      vertex -10.9154 -51.3527 0
      vertex -10.9154 51.3527 0
      vertex -5.48774 52.2124 0
    endloop
  endfacet
  facet normal 0 0 -1
    outer loop
      vertex -16.2234 -49.9305 0
      vertex -10.9154 51.3527 0
      vertex -10.9154 -51.3527 0
    endloop
  endfacet
  facet normal 0 0 -1
    outer loop
      vertex -16.2234 -49.9305 0
      vertex -16.2234 49.9305 0
      vertex -10.9154 51.3527 0
    endloop
  endfacet
  facet normal 0 0 -1
    outer loop
      vertex -21.3537 -47.9611 0
      vertex -16.2234 49.9305 0
      vertex -16.2234 -49.9305 0
    endloop
  endfacet
  facet normal 0 0 -1
    outer loop
      vertex -21.3537 -47.9611 0
      vertex -21.3537 47.9611 0
      vertex -16.2234 49.9305 0
    endloop
  endfacet
  facet normal 0 0 -1
    outer loop
      vertex -26.25 -45.4663 0
      vertex -21.3537 47.9611 0
      vertex -21.3537 -47.9611 0
    endloop
  endfacet
  facet normal 0 0 -1
    outer loop
      vertex -26.25 -45.4663 0
      vertex -26.25 45.4663 0
      vertex -21.3537 47.9611 0
    endloop
  endfacet
  facet normal 0 0 -1
    outer loop
      vertex -30.8587 -42.4734 0
      vertex -26.25 45.4663 0
      vertex -26.25 -45.4663 0
    endloop
  endfacet
  facet normal 0 0 -1
    outer loop
      vertex -30.8587 -42.4734 0
      vertex -30.8587 42.4734 0
      vertex -26.25 45.4663 0
    endloop
  endfacet
  facet normal 0 0 -1
    outer loop
      vertex -35.1294 -39.0151 0
      vertex -30.8587 42.4734 0
      vertex -30.8587 -42.4734 0
    endloop
  endfacet
  facet normal 0 0 -1
    outer loop
      vertex -35.1294 -39.0151 0
      vertex -35.1294 39.0151 0
      vertex -30.8587 42.4734 0
    endloop
  endfacet
  facet normal 0 0 -1
    outer loop
      vertex -39.0151 -35.1294 0
      vertex -35.1294 39.0151 0
      vertex -35.1294 -39.0151 0
    endloop
  endfacet
  facet normal 0 0 -1
    outer loop
      vertex -39.0151 -35.1294 0
      vertex -39.0151 35.1294 0
      vertex -35.1294 39.0151 0
    endloop
  endfacet
  facet normal 0 0 -1
    outer loop
      vertex -42.4734 -30.8587 0
      vertex -39.0151 35.1294 0
      vertex -39.0151 -35.1294 0
    endloop
  endfacet
  facet normal 0 0 -1
    outer loop
      vertex -42.4734 -30.8587 0
      vertex -42.4734 30.8587 0
      vertex -39.0151 35.1294 0
    endloop
  endfacet
  facet normal 0 0 -1
    outer loop
      vertex -45.4663 -26.25 0
      vertex -42.4734 30.8587 0
      vertex -42.4734 -30.8587 0
    endloop
  endfacet
  facet normal 0 0 -1
    outer loop
      vertex -45.4663 -26.25 0
      vertex -45.4663 26.25 0
      vertex -42.4734 30.8587 0
    endloop
  endfacet
  facet normal 0 0 -1
    outer loop
      vertex -47.9611 -21.3537 0
      vertex -45.4663 26.25 0
      vertex -45.4663 -26.25 0
    endloop
  endfacet
  facet normal 0 0 -1
    outer loop
      vertex -47.9611 -21.3537 0
      vertex -47.9611 21.3537 0
      vertex -45.4663 26.25 0
    endloop
  endfacet
  facet normal 0 0 -1
    outer loop
      vertex -49.9305 -16.2234 0
      vertex -47.9611 21.3537 0
      vertex -47.9611 -21.3537 0
    endloop
  endfacet
  facet normal 0 0 -1
    outer loop
      vertex -49.9305 -16.2234 0
      vertex -49.9305 16.2234 0
      vertex -47.9611 21.3537 0
    endloop
  endfacet
  facet normal 0 0 -1
    outer loop
      vertex -51.3527 -10.9154 0
      vertex -49.9305 16.2234 0
      vertex -49.9305 -16.2234 0
    endloop
  endfacet
  facet normal 0 0 -1
    outer loop
      vertex -51.3527 -10.9154 0
      vertex -51.3527 10.9154 0
      vertex -49.9305 16.2234 0
    endloop
  endfacet
  facet normal 0 0 -1
    outer loop
      vertex -52.2124 -5.48774 0
      vertex -51.3527 10.9154 0
      vertex -51.3527 -10.9154 0
    endloop
  endfacet
  facet normal 0 0 -1
    outer loop
      vertex -52.2124 -5.48774 0
      vertex -52.2124 5.48774 0
      vertex -51.3527 10.9154 0
    endloop
  endfacet
  facet normal 0 -0 -1
    outer loop
      vertex -52.2124 5.48774 0
      vertex -52.2124 -5.48774 0
      vertex -52.5 0 0
    endloop
  endfacet
  facet normal -0.634169 -0.100428 0.766645
    outer loop
      vertex -24.863 -2.61321 33
      vertex -52.2124 -5.48774 10
      vertex -24.4537 -5.19779 33
    endloop
  endfacet
  facet normal -0.453992 -0.891006 0
    outer loop
      vertex -26.25 -45.4663 0
      vertex -21.3537 -47.9611 10
      vertex -26.25 -45.4663 10
    endloop
  endfacet
  facet normal -0.453992 -0.891006 -0
    outer loop
      vertex -21.3537 -47.9611 10
      vertex -26.25 -45.4663 0
      vertex -21.3537 -47.9611 0
    endloop
  endfacet
  facet normal -0.620197 -0.166173 0.766643
    outer loop
      vertex -24.4537 -5.19779 33
      vertex -51.3527 -10.9154 10
      vertex -49.9305 -16.2234 10
    endloop
  endfacet
  facet normal 0.641193 -0.0336035 0.766644
    outer loop
      vertex 52.5 0 10
      vertex 25 0 33
      vertex 52.2124 -5.48774 10
    endloop
  endfacet
  facet normal 0.641193 0.0336035 0.766644
    outer loop
      vertex 52.2124 5.48774 10
      vertex 25 0 33
      vertex 52.5 0 10
    endloop
  endfacet
  facet normal 0.498986 -0.404066 0.766644
    outer loop
      vertex 42.4734 -30.8587 10
      vertex 20.2254 -14.6946 33
      vertex 39.0151 -35.1294 10
    endloop
  endfacet
  facet normal -0.933577 0.358378 0
    outer loop
      vertex -49.9305 16.2234 0
      vertex -47.9611 21.3537 10
      vertex -47.9611 21.3537 0
    endloop
  endfacet
  facet normal -0.933577 0.358378 0
    outer loop
      vertex -47.9611 21.3537 10
      vertex -49.9305 16.2234 0
      vertex -49.9305 16.2234 10
    endloop
  endfacet
  facet normal -0.230105 0.599425 0.766643
    outer loop
      vertex -21.3537 47.9611 10
      vertex -10.25 23.2037 32.6901
      vertex -16.2234 49.9305 10
    endloop
  endfacet
  facet normal -0.230543 0.59924 0.766656
    outer loop
      vertex -10.25 23.2037 32.6901
      vertex -21.3537 47.9611 10
      vertex -10.25 23.0219 32.8322
    endloop
  endfacet
  facet normal -0.404061 0.498991 0.766644
    outer loop
      vertex -14.6946 20.2254 33
      vertex -35.1294 39.0151 10
      vertex -16.7283 18.5786 33
    endloop
  endfacet
  facet normal -0.641191 0.0336151 0.766645
    outer loop
      vertex -24.863 2.61321 33
      vertex -52.2124 5.48774 10
      vertex -25 0 33
    endloop
  endfacet
  facet normal 0.544636 0.838673 -0
    outer loop
      vertex 30.8587 42.4734 0
      vertex 26.25 45.4663 10
      vertex 30.8587 42.4734 10
    endloop
  endfacet
  facet normal 0.544636 0.838673 0
    outer loop
      vertex 26.25 45.4663 10
      vertex 30.8587 42.4734 0
      vertex 26.25 45.4663 0
    endloop
  endfacet
  facet normal 0.3497 -0.538486 0.766644
    outer loop
      vertex 14.6946 -20.2254 33
      vertex 12.5 -21.6506 33
      vertex 26.25 -45.4663 10
    endloop
  endfacet
  facet normal 0.838673 0.544636 0
    outer loop
      vertex 45.4663 26.25 10
      vertex 42.4734 30.8587 0
      vertex 42.4734 30.8587 10
    endloop
  endfacet
  facet normal 0.838673 0.544636 0
    outer loop
      vertex 42.4734 30.8587 0
      vertex 45.4663 26.25 10
      vertex 45.4663 26.25 0
    endloop
  endfacet
  facet normal 0.634169 -0.100428 0.766645
    outer loop
      vertex 24.863 -2.61321 33
      vertex 24.4537 -5.19779 33
      vertex 52.2124 -5.48774 10
    endloop
  endfacet
  facet normal -0.349696 0.538489 0.766644
    outer loop
      vertex -26.25 45.4663 10
      vertex -30.8587 42.4734 10
      vertex -14.6946 20.2254 33
    endloop
  endfacet
  facet normal -0.634168 0.100447 0.766643
    outer loop
      vertex -51.3527 10.9154 10
      vertex -52.2124 5.48774 10
      vertex -24.4537 5.19779 33
    endloop
  endfacet
  facet normal 0.965929 -0.258806 0
    outer loop
      vertex 49.9305 -16.2234 10
      vertex 51.3527 -10.9154 0
      vertex 51.3527 -10.9154 10
    endloop
  endfacet
  facet normal 0.965929 -0.258806 0
    outer loop
      vertex 51.3527 -10.9154 0
      vertex 49.9305 -16.2234 10
      vertex 49.9305 -16.2234 0
    endloop
  endfacet
  facet normal -0.100453 0.634169 0.766642
    outer loop
      vertex -10.25 51.4581 10
      vertex -10.9154 51.3527 10
      vertex -10.25 48.2225 12.6765
    endloop
  endfacet
  facet normal 0.707107 0.707107 0
    outer loop
      vertex 39.0151 35.1294 10
      vertex 35.1294 39.0151 0
      vertex 35.1294 39.0151 10
    endloop
  endfacet
  facet normal 0.707107 0.707107 0
    outer loop
      vertex 35.1294 39.0151 0
      vertex 39.0151 35.1294 10
      vertex 39.0151 35.1294 0
    endloop
  endfacet
  facet normal 0.291605 -0.572274 0.766465
    outer loop
      vertex 10.25 -22.9534 32.8833
      vertex 12.5 -21.6506 33
      vertex 10.25 -22.7971 33
    endloop
  endfacet
  facet normal 0.291491 -0.572093 0.766644
    outer loop
      vertex 12.5 -21.6506 33
      vertex 10.25 -22.9534 32.8833
      vertex 26.25 -45.4663 10
    endloop
  endfacet
  facet normal -0.291496 0.572091 0.766644
    outer loop
      vertex -26.25 45.4663 10
      vertex -10.25 23.0219 32.8322
      vertex -21.3537 47.9611 10
    endloop
  endfacet
  facet normal -0.291765 0.571922 0.766667
    outer loop
      vertex -10.25 23.0219 32.8322
      vertex -26.25 45.4663 10
      vertex -10.25 22.9534 32.8833
    endloop
  endfacet
  facet normal 0.100453 -0.634169 0.766642
    outer loop
      vertex 10.25 -48.2225 12.6765
      vertex 10.25 -51.4581 10
      vertex 10.9154 -51.3527 10
    endloop
  endfacet
  facet normal -0.349696 -0.538489 0.766644
    outer loop
      vertex -14.6946 -20.2254 33
      vertex -30.8587 -42.4734 10
      vertex -26.25 -45.4663 10
    endloop
  endfacet
  facet normal -0.987687 -0.156442 0
    outer loop
      vertex -51.3527 -10.9154 0
      vertex -52.2124 -5.48774 10
      vertex -52.2124 -5.48774 0
    endloop
  endfacet
  facet normal -0.987687 -0.156442 0
    outer loop
      vertex -52.2124 -5.48774 10
      vertex -51.3527 -10.9154 0
      vertex -51.3527 -10.9154 10
    endloop
  endfacet
  facet normal 0.0523359 0.99863 -0
    outer loop
      vertex 5.48774 52.2124 0
      vertex 0 52.5 10
      vertex 5.48774 52.2124 10
    endloop
  endfacet
  facet normal 0.0523359 0.99863 0
    outer loop
      vertex 0 52.5 10
      vertex 5.48774 52.2124 0
      vertex 0 52.5 0
    endloop
  endfacet
  facet normal 0.641191 -0.0336151 0.766645
    outer loop
      vertex 25 0 33
      vertex 24.863 -2.61321 33
      vertex 52.2124 -5.48774 10
    endloop
  endfacet
  facet normal -0.498991 -0.404061 0.766644
    outer loop
      vertex -20.2254 -14.6946 33
      vertex -39.0151 -35.1294 10
      vertex -18.5786 -16.7283 33
    endloop
  endfacet
  facet normal 0.707107 -0.707107 0
    outer loop
      vertex 35.1294 -39.0151 10
      vertex 39.0151 -35.1294 0
      vertex 39.0151 -35.1294 10
    endloop
  endfacet
  facet normal 0.707107 -0.707107 0
    outer loop
      vertex 39.0151 -35.1294 0
      vertex 35.1294 -39.0151 10
      vertex 35.1294 -39.0151 0
    endloop
  endfacet
  facet normal 0.634168 -0.100447 0.766643
    outer loop
      vertex 52.2124 -5.48774 10
      vertex 24.4537 -5.19779 33
      vertex 51.3527 -10.9154 10
    endloop
  endfacet
  facet normal -0.291605 0.572274 0.766465
    outer loop
      vertex -10.25 22.9534 32.8833
      vertex -12.5 21.6506 33
      vertex -10.25 22.7971 33
    endloop
  endfacet
  facet normal -0.291491 0.572093 0.766644
    outer loop
      vertex -12.5 21.6506 33
      vertex -10.25 22.9534 32.8833
      vertex -26.25 45.4663 10
    endloop
  endfacet
  facet normal -0.965929 -0.258806 0
    outer loop
      vertex -49.9305 -16.2234 0
      vertex -51.3527 -10.9154 10
      vertex -51.3527 -10.9154 0
    endloop
  endfacet
  facet normal -0.965929 -0.258806 0
    outer loop
      vertex -51.3527 -10.9154 10
      vertex -49.9305 -16.2234 0
      vertex -49.9305 -16.2234 10
    endloop
  endfacet
  facet normal 0.933577 0.358378 0
    outer loop
      vertex 49.9305 16.2234 10
      vertex 47.9611 21.3537 0
      vertex 47.9611 21.3537 10
    endloop
  endfacet
  facet normal 0.933577 0.358378 0
    outer loop
      vertex 47.9611 21.3537 0
      vertex 49.9305 16.2234 10
      vertex 49.9305 16.2234 0
    endloop
  endfacet
  facet normal -0.498986 -0.404066 0.766644
    outer loop
      vertex -20.2254 -14.6946 33
      vertex -42.4734 -30.8587 10
      vertex -39.0151 -35.1294 10
    endloop
  endfacet
  facet normal 0.258806 -0.965929 0
    outer loop
      vertex 10.9154 -51.3527 0
      vertex 16.2234 -49.9305 10
      vertex 10.9154 -51.3527 10
    endloop
  endfacet
  facet normal 0.258806 -0.965929 0
    outer loop
      vertex 16.2234 -49.9305 10
      vertex 10.9154 -51.3527 0
      vertex 16.2234 -49.9305 0
    endloop
  endfacet
  facet normal -0.538486 -0.3497 0.766644
    outer loop
      vertex -21.6506 -12.5 33
      vertex -45.4663 -26.25 10
      vertex -20.2254 -14.6946 33
    endloop
  endfacet
  facet normal 0.99863 -0.0523359 0
    outer loop
      vertex 52.2124 -5.48774 10
      vertex 52.5 0 0
      vertex 52.5 0 10
    endloop
  endfacet
  facet normal 0.99863 -0.0523359 0
    outer loop
      vertex 52.5 0 0
      vertex 52.2124 -5.48774 10
      vertex 52.2124 -5.48774 0
    endloop
  endfacet
  facet normal 0.291496 0.572091 0.766644
    outer loop
      vertex 10.25 23.0219 32.8322
      vertex 26.25 45.4663 10
      vertex 21.3537 47.9611 10
    endloop
  endfacet
  facet normal 0.291765 0.571922 0.766667
    outer loop
      vertex 26.25 45.4663 10
      vertex 10.25 23.0219 32.8322
      vertex 10.25 22.9534 32.8833
    endloop
  endfacet
  facet normal 0.166142 0.620208 0.766642
    outer loop
      vertex 10.25 36.1278 22.4608
      vertex 10.25 31.5463 26.1672
      vertex 16.2234 49.9305 10
    endloop
  endfacet
  facet normal -0.620197 0.166173 0.766643
    outer loop
      vertex -49.9305 16.2234 10
      vertex -51.3527 10.9154 10
      vertex -24.4537 5.19779 33
    endloop
  endfacet
  facet normal -0.454014 -0.454014 0.766644
    outer loop
      vertex -18.5786 -16.7283 33
      vertex -35.1294 -39.0151 10
      vertex -16.7283 -18.5786 33
    endloop
  endfacet
  facet normal -0.454014 -0.454014 0.766644
    outer loop
      vertex -35.1294 -39.0151 10
      vertex -18.5786 -16.7283 33
      vertex -39.0151 -35.1294 10
    endloop
  endfacet
  facet normal 0.538486 0.3497 0.766644
    outer loop
      vertex 45.4663 26.25 10
      vertex 20.2254 14.6946 33
      vertex 21.6506 12.5 33
    endloop
  endfacet
  facet normal 0.0523359 -0.99863 0
    outer loop
      vertex 0 -52.5 0
      vertex 5.48774 -52.2124 10
      vertex 0 -52.5 10
    endloop
  endfacet
  facet normal 0.0523359 -0.99863 0
    outer loop
      vertex 5.48774 -52.2124 10
      vertex 0 -52.5 0
      vertex 5.48774 -52.2124 0
    endloop
  endfacet
  facet normal -0.538489 0.349696 0.766644
    outer loop
      vertex -42.4734 30.8587 10
      vertex -45.4663 26.25 10
      vertex -20.2254 14.6946 33
    endloop
  endfacet
  facet normal 0.404066 -0.498986 0.766644
    outer loop
      vertex 35.1294 -39.0151 10
      vertex 14.6946 -20.2254 33
      vertex 30.8587 -42.4734 10
    endloop
  endfacet
  facet normal 0.454014 0.454014 0.766644
    outer loop
      vertex 35.1294 39.0151 10
      vertex 18.5786 16.7283 33
      vertex 39.0151 35.1294 10
    endloop
  endfacet
  facet normal 0.454014 0.454014 0.766644
    outer loop
      vertex 18.5786 16.7283 33
      vertex 35.1294 39.0151 10
      vertex 16.7283 18.5786 33
    endloop
  endfacet
  facet normal 0.641191 0.0336151 0.766645
    outer loop
      vertex 52.2124 5.48774 10
      vertex 24.863 2.61321 33
      vertex 25 0 33
    endloop
  endfacet
  facet normal 0.100453 0.634169 0.766642
    outer loop
      vertex 10.25 51.4581 10
      vertex 10.25 48.2225 12.6765
      vertex 10.9154 51.3527 10
    endloop
  endfacet
  facet normal -0.358378 -0.933577 0
    outer loop
      vertex -21.3537 -47.9611 0
      vertex -16.2234 -49.9305 10
      vertex -21.3537 -47.9611 10
    endloop
  endfacet
  facet normal -0.358378 -0.933577 -0
    outer loop
      vertex -16.2234 -49.9305 10
      vertex -21.3537 -47.9611 0
      vertex -16.2234 -49.9305 0
    endloop
  endfacet
  facet normal -0.544636 -0.838673 0
    outer loop
      vertex -30.8587 -42.4734 0
      vertex -26.25 -45.4663 10
      vertex -30.8587 -42.4734 10
    endloop
  endfacet
  facet normal -0.544636 -0.838673 -0
    outer loop
      vertex -26.25 -45.4663 10
      vertex -30.8587 -42.4734 0
      vertex -26.25 -45.4663 0
    endloop
  endfacet
  facet normal -0.634168 -0.100447 0.766643
    outer loop
      vertex -24.4537 -5.19779 33
      vertex -52.2124 -5.48774 10
      vertex -51.3527 -10.9154 10
    endloop
  endfacet
  facet normal -0.454014 0.454014 0.766644
    outer loop
      vertex -35.1294 39.0151 10
      vertex -18.5786 16.7283 33
      vertex -16.7283 18.5786 33
    endloop
  endfacet
  facet normal -0.454014 0.454014 0.766644
    outer loop
      vertex -18.5786 16.7283 33
      vertex -35.1294 39.0151 10
      vertex -39.0151 35.1294 10
    endloop
  endfacet
  facet normal -0.100453 -0.634169 0.766642
    outer loop
      vertex -10.25 -48.2225 12.6765
      vertex -10.9154 -51.3527 10
      vertex -10.25 -51.4581 10
    endloop
  endfacet
  facet normal -0.620192 0.166186 0.766644
    outer loop
      vertex -23.7764 7.72542 33
      vertex -49.9305 16.2234 10
      vertex -24.4537 5.19779 33
    endloop
  endfacet
  facet normal 0.634169 0.100428 0.766645
    outer loop
      vertex 52.2124 5.48774 10
      vertex 24.4537 5.19779 33
      vertex 24.863 2.61321 33
    endloop
  endfacet
  facet normal -0.933577 -0.358378 0
    outer loop
      vertex -47.9611 -21.3537 0
      vertex -49.9305 -16.2234 10
      vertex -49.9305 -16.2234 0
    endloop
  endfacet
  facet normal -0.933577 -0.358378 0
    outer loop
      vertex -49.9305 -16.2234 10
      vertex -47.9611 -21.3537 0
      vertex -47.9611 -21.3537 10
    endloop
  endfacet
  facet normal -0.57209 0.291496 0.766644
    outer loop
      vertex -45.4663 26.25 10
      vertex -47.9611 21.3537 10
      vertex -22.8386 10.1684 33
    endloop
  endfacet
  facet normal -0.99863 -0.0523359 0
    outer loop
      vertex -52.2124 -5.48774 0
      vertex -52.5 0 10
      vertex -52.5 0 0
    endloop
  endfacet
  facet normal -0.99863 -0.0523359 0
    outer loop
      vertex -52.5 0 10
      vertex -52.2124 -5.48774 0
      vertex -52.2124 -5.48774 10
    endloop
  endfacet
  facet normal -0.77715 0.629315 0
    outer loop
      vertex -42.4734 30.8587 0
      vertex -39.0151 35.1294 10
      vertex -39.0151 35.1294 0
    endloop
  endfacet
  facet normal -0.77715 0.629315 0
    outer loop
      vertex -39.0151 35.1294 10
      vertex -42.4734 30.8587 0
      vertex -42.4734 30.8587 10
    endloop
  endfacet
  facet normal -0.572092 0.291493 0.766644
    outer loop
      vertex -21.6506 12.5 33
      vertex -45.4663 26.25 10
      vertex -22.8386 10.1684 33
    endloop
  endfacet
  facet normal -0.230543 -0.59924 0.766656
    outer loop
      vertex -21.3537 -47.9611 10
      vertex -10.25 -23.2037 32.6901
      vertex -10.25 -23.0219 32.8322
    endloop
  endfacet
  facet normal -0.230105 -0.599425 0.766643
    outer loop
      vertex -10.25 -23.2037 32.6901
      vertex -21.3537 -47.9611 10
      vertex -16.2234 -49.9305 10
    endloop
  endfacet
  facet normal 0.965929 0.258806 0
    outer loop
      vertex 51.3527 10.9154 10
      vertex 49.9305 16.2234 0
      vertex 49.9305 16.2234 10
    endloop
  endfacet
  facet normal 0.965929 0.258806 0
    outer loop
      vertex 49.9305 16.2234 0
      vertex 51.3527 10.9154 10
      vertex 51.3527 10.9154 0
    endloop
  endfacet
  facet normal 0.230105 0.599425 0.766643
    outer loop
      vertex 10.25 23.2037 32.6901
      vertex 21.3537 47.9611 10
      vertex 16.2234 49.9305 10
    endloop
  endfacet
  facet normal 0.230543 0.59924 0.766656
    outer loop
      vertex 21.3537 47.9611 10
      vertex 10.25 23.2037 32.6901
      vertex 10.25 23.0219 32.8322
    endloop
  endfacet
  facet normal 0.404061 -0.498991 0.766644
    outer loop
      vertex 16.7283 -18.5786 33
      vertex 14.6946 -20.2254 33
      vertex 35.1294 -39.0151 10
    endloop
  endfacet
  facet normal 0.987687 -0.156442 0
    outer loop
      vertex 51.3527 -10.9154 10
      vertex 52.2124 -5.48774 0
      vertex 52.2124 -5.48774 10
    endloop
  endfacet
  facet normal 0.987687 -0.156442 0
    outer loop
      vertex 52.2124 -5.48774 0
      vertex 51.3527 -10.9154 10
      vertex 51.3527 -10.9154 0
    endloop
  endfacet
  facet normal -0.538486 0.3497 0.766644
    outer loop
      vertex -20.2254 14.6946 33
      vertex -45.4663 26.25 10
      vertex -21.6506 12.5 33
    endloop
  endfacet
  facet normal 0.166175 -0.620195 0.766644
    outer loop
      vertex 10.25 -48.2225 12.6765
      vertex 16.2234 -49.9305 10
      vertex 10.25 -36.1278 22.4608
    endloop
  endfacet
  facet normal 0.166173 -0.620199 0.766642
    outer loop
      vertex 16.2234 -49.9305 10
      vertex 10.25 -48.2225 12.6765
      vertex 10.9154 -51.3527 10
    endloop
  endfacet
  facet normal -0.641193 0.0336035 0.766644
    outer loop
      vertex -52.2124 5.48774 10
      vertex -52.5 0 10
      vertex -25 0 33
    endloop
  endfacet
  facet normal -0.838673 0.544636 0
    outer loop
      vertex -45.4663 26.25 0
      vertex -42.4734 30.8587 10
      vertex -42.4734 30.8587 0
    endloop
  endfacet
  facet normal -0.838673 0.544636 0
    outer loop
      vertex -42.4734 30.8587 10
      vertex -45.4663 26.25 0
      vertex -45.4663 26.25 10
    endloop
  endfacet
  facet normal -0.498991 0.404061 0.766644
    outer loop
      vertex -18.5786 16.7283 33
      vertex -39.0151 35.1294 10
      vertex -20.2254 14.6946 33
    endloop
  endfacet
  facet normal -0.891006 0.453992 0
    outer loop
      vertex -47.9611 21.3537 0
      vertex -45.4663 26.25 10
      vertex -45.4663 26.25 0
    endloop
  endfacet
  facet normal -0.891006 0.453992 0
    outer loop
      vertex -45.4663 26.25 10
      vertex -47.9611 21.3537 0
      vertex -47.9611 21.3537 10
    endloop
  endfacet
  facet normal -0.599424 0.230105 0.766644
    outer loop
      vertex -47.9611 21.3537 10
      vertex -49.9305 16.2234 10
      vertex -22.8386 10.1684 33
    endloop
  endfacet
  facet normal -0.599424 0.230104 0.766644
    outer loop
      vertex -22.8386 10.1684 33
      vertex -49.9305 16.2234 10
      vertex -23.7764 7.72542 33
    endloop
  endfacet
  facet normal 0.599424 -0.230105 0.766644
    outer loop
      vertex 49.9305 -16.2234 10
      vertex 22.8386 -10.1684 33
      vertex 47.9611 -21.3537 10
    endloop
  endfacet
  facet normal -0.77715 -0.629315 0
    outer loop
      vertex -39.0151 -35.1294 0
      vertex -42.4734 -30.8587 10
      vertex -42.4734 -30.8587 0
    endloop
  endfacet
  facet normal -0.77715 -0.629315 0
    outer loop
      vertex -42.4734 -30.8587 10
      vertex -39.0151 -35.1294 0
      vertex -39.0151 -35.1294 10
    endloop
  endfacet
  facet normal -0.156441 0.987687 0
    outer loop
      vertex -5.48774 52.2124 0
      vertex -10.25 51.4581 10
      vertex -5.48774 52.2124 10
    endloop
  endfacet
  facet normal -0.156442 0.987687 -5.63825e-07
    outer loop
      vertex -10.9154 51.3527 0
      vertex -10.25 51.4581 10
      vertex -5.48774 52.2124 0
    endloop
  endfacet
  facet normal -0.15645 0.987686 0
    outer loop
      vertex -10.25 51.4581 10
      vertex -10.9154 51.3527 0
      vertex -10.9154 51.3527 10
    endloop
  endfacet
  facet normal 0.453992 0.891006 -0
    outer loop
      vertex 26.25 45.4663 0
      vertex 21.3537 47.9611 10
      vertex 26.25 45.4663 10
    endloop
  endfacet
  facet normal 0.453992 0.891006 0
    outer loop
      vertex 21.3537 47.9611 10
      vertex 26.25 45.4663 0
      vertex 21.3537 47.9611 0
    endloop
  endfacet
  facet normal -0.3497 0.538486 0.766644
    outer loop
      vertex -12.5 21.6506 33
      vertex -26.25 45.4663 10
      vertex -14.6946 20.2254 33
    endloop
  endfacet
  facet normal 0.230543 -0.59924 0.766656
    outer loop
      vertex 10.25 -23.2037 32.6901
      vertex 21.3537 -47.9611 10
      vertex 10.25 -23.0219 32.8322
    endloop
  endfacet
  facet normal 0.230105 -0.599425 0.766643
    outer loop
      vertex 21.3537 -47.9611 10
      vertex 10.25 -23.2037 32.6901
      vertex 16.2234 -49.9305 10
    endloop
  endfacet
  facet normal 0.156441 -0.987687 0
    outer loop
      vertex 5.48774 -52.2124 0
      vertex 10.25 -51.4581 10
      vertex 5.48774 -52.2124 10
    endloop
  endfacet
  facet normal 0.156442 -0.987687 -5.63825e-07
    outer loop
      vertex 10.9154 -51.3527 0
      vertex 10.25 -51.4581 10
      vertex 5.48774 -52.2124 0
    endloop
  endfacet
  facet normal 0.15645 -0.987686 0
    outer loop
      vertex 10.25 -51.4581 10
      vertex 10.9154 -51.3527 0
      vertex 10.9154 -51.3527 10
    endloop
  endfacet
  facet normal -0.166142 0.620208 0.766642
    outer loop
      vertex -10.25 36.1278 22.4608
      vertex -16.2234 49.9305 10
      vertex -10.25 31.5463 26.1672
    endloop
  endfacet
  facet normal 0.358378 0.933577 -0
    outer loop
      vertex 21.3537 47.9611 0
      vertex 16.2234 49.9305 10
      vertex 21.3537 47.9611 10
    endloop
  endfacet
  facet normal 0.358378 0.933577 0
    outer loop
      vertex 16.2234 49.9305 10
      vertex 21.3537 47.9611 0
      vertex 16.2234 49.9305 0
    endloop
  endfacet
  facet normal -0.987687 0.156442 0
    outer loop
      vertex -52.2124 5.48774 0
      vertex -51.3527 10.9154 10
      vertex -51.3527 10.9154 0
    endloop
  endfacet
  facet normal -0.987687 0.156442 0
    outer loop
      vertex -51.3527 10.9154 10
      vertex -52.2124 5.48774 0
      vertex -52.2124 5.48774 10
    endloop
  endfacet
  facet normal -0.838673 -0.544636 0
    outer loop
      vertex -42.4734 -30.8587 0
      vertex -45.4663 -26.25 10
      vertex -45.4663 -26.25 0
    endloop
  endfacet
  facet normal -0.838673 -0.544636 0
    outer loop
      vertex -45.4663 -26.25 10
      vertex -42.4734 -30.8587 0
      vertex -42.4734 -30.8587 10
    endloop
  endfacet
  facet normal 0.572092 0.291493 0.766644
    outer loop
      vertex 45.4663 26.25 10
      vertex 21.6506 12.5 33
      vertex 22.8386 10.1684 33
    endloop
  endfacet
  facet normal 0.230117 0.599421 0.766642
    outer loop
      vertex 10.25 31.5463 26.1672
      vertex 10.25 23.2037 32.6901
      vertex 16.2234 49.9305 10
    endloop
  endfacet
  facet normal -0.166175 -0.620195 0.766644
    outer loop
      vertex -16.2234 -49.9305 10
      vertex -10.25 -48.2225 12.6765
      vertex -10.25 -36.1278 22.4608
    endloop
  endfacet
  facet normal -0.166173 -0.620199 0.766642
    outer loop
      vertex -10.25 -48.2225 12.6765
      vertex -16.2234 -49.9305 10
      vertex -10.9154 -51.3527 10
    endloop
  endfacet
  facet normal 0.629315 -0.77715 0
    outer loop
      vertex 30.8587 -42.4734 0
      vertex 35.1294 -39.0151 10
      vertex 30.8587 -42.4734 10
    endloop
  endfacet
  facet normal 0.629315 -0.77715 0
    outer loop
      vertex 35.1294 -39.0151 10
      vertex 30.8587 -42.4734 0
      vertex 35.1294 -39.0151 0
    endloop
  endfacet
  facet normal 0.77715 -0.629315 0
    outer loop
      vertex 39.0151 -35.1294 10
      vertex 42.4734 -30.8587 0
      vertex 42.4734 -30.8587 10
    endloop
  endfacet
  facet normal 0.77715 -0.629315 0
    outer loop
      vertex 42.4734 -30.8587 0
      vertex 39.0151 -35.1294 10
      vertex 39.0151 -35.1294 0
    endloop
  endfacet
  facet normal -0.572092 -0.291493 0.766644
    outer loop
      vertex -22.8386 -10.1684 33
      vertex -45.4663 -26.25 10
      vertex -21.6506 -12.5 33
    endloop
  endfacet
  facet normal 0.258806 0.965929 -0
    outer loop
      vertex 16.2234 49.9305 0
      vertex 10.9154 51.3527 10
      vertex 16.2234 49.9305 10
    endloop
  endfacet
  facet normal 0.258806 0.965929 0
    outer loop
      vertex 10.9154 51.3527 10
      vertex 16.2234 49.9305 0
      vertex 10.9154 51.3527 0
    endloop
  endfacet
  facet normal -0.166173 0.620199 0.766642
    outer loop
      vertex -16.2234 49.9305 10
      vertex -10.25 48.2225 12.6765
      vertex -10.9154 51.3527 10
    endloop
  endfacet
  facet normal -0.166175 0.620195 0.766644
    outer loop
      vertex -10.25 48.2225 12.6765
      vertex -16.2234 49.9305 10
      vertex -10.25 36.1278 22.4608
    endloop
  endfacet
  facet normal 0.538489 -0.349696 0.766644
    outer loop
      vertex 45.4663 -26.25 10
      vertex 20.2254 -14.6946 33
      vertex 42.4734 -30.8587 10
    endloop
  endfacet
  facet normal 0.838673 -0.544636 0
    outer loop
      vertex 42.4734 -30.8587 10
      vertex 45.4663 -26.25 0
      vertex 45.4663 -26.25 10
    endloop
  endfacet
  facet normal 0.838673 -0.544636 0
    outer loop
      vertex 45.4663 -26.25 0
      vertex 42.4734 -30.8587 10
      vertex 42.4734 -30.8587 0
    endloop
  endfacet
  facet normal 0.599424 -0.230104 0.766644
    outer loop
      vertex 23.7764 -7.72542 33
      vertex 22.8386 -10.1684 33
      vertex 49.9305 -16.2234 10
    endloop
  endfacet
  facet normal 0.291765 -0.571922 0.766667
    outer loop
      vertex 10.25 -23.0219 32.8322
      vertex 26.25 -45.4663 10
      vertex 10.25 -22.9534 32.8833
    endloop
  endfacet
  facet normal 0.291496 -0.572091 0.766644
    outer loop
      vertex 26.25 -45.4663 10
      vertex 10.25 -23.0219 32.8322
      vertex 21.3537 -47.9611 10
    endloop
  endfacet
  facet normal 0.3497 0.538486 0.766644
    outer loop
      vertex 26.25 45.4663 10
      vertex 12.5 21.6506 33
      vertex 14.6946 20.2254 33
    endloop
  endfacet
  facet normal 0.620197 0.166173 0.766643
    outer loop
      vertex 49.9305 16.2234 10
      vertex 24.4537 5.19779 33
      vertex 51.3527 10.9154 10
    endloop
  endfacet
  facet normal 0.634168 0.100447 0.766643
    outer loop
      vertex 51.3527 10.9154 10
      vertex 24.4537 5.19779 33
      vertex 52.2124 5.48774 10
    endloop
  endfacet
  facet normal 0.891006 0.453992 0
    outer loop
      vertex 47.9611 21.3537 10
      vertex 45.4663 26.25 0
      vertex 45.4663 26.25 10
    endloop
  endfacet
  facet normal 0.891006 0.453992 0
    outer loop
      vertex 45.4663 26.25 0
      vertex 47.9611 21.3537 10
      vertex 47.9611 21.3537 0
    endloop
  endfacet
  facet normal -0.258806 -0.965929 0
    outer loop
      vertex -16.2234 -49.9305 0
      vertex -10.9154 -51.3527 10
      vertex -16.2234 -49.9305 10
    endloop
  endfacet
  facet normal -0.258806 -0.965929 -0
    outer loop
      vertex -10.9154 -51.3527 10
      vertex -16.2234 -49.9305 0
      vertex -10.9154 -51.3527 0
    endloop
  endfacet
  facet normal 0.629315 0.77715 -0
    outer loop
      vertex 35.1294 39.0151 0
      vertex 30.8587 42.4734 10
      vertex 35.1294 39.0151 10
    endloop
  endfacet
  facet normal 0.629315 0.77715 0
    outer loop
      vertex 30.8587 42.4734 10
      vertex 35.1294 39.0151 0
      vertex 30.8587 42.4734 0
    endloop
  endfacet
  facet normal 0.538486 -0.3497 0.766644
    outer loop
      vertex 21.6506 -12.5 33
      vertex 20.2254 -14.6946 33
      vertex 45.4663 -26.25 10
    endloop
  endfacet
  facet normal 0.498991 -0.404061 0.766644
    outer loop
      vertex 20.2254 -14.6946 33
      vertex 18.5786 -16.7283 33
      vertex 39.0151 -35.1294 10
    endloop
  endfacet
  facet normal 0.77715 0.629315 0
    outer loop
      vertex 42.4734 30.8587 10
      vertex 39.0151 35.1294 0
      vertex 39.0151 35.1294 10
    endloop
  endfacet
  facet normal 0.77715 0.629315 0
    outer loop
      vertex 39.0151 35.1294 0
      vertex 42.4734 30.8587 10
      vertex 42.4734 30.8587 0
    endloop
  endfacet
  facet normal -0.57209 -0.291496 0.766644
    outer loop
      vertex -22.8386 -10.1684 33
      vertex -47.9611 -21.3537 10
      vertex -45.4663 -26.25 10
    endloop
  endfacet
  facet normal 0.15645 0.987686 -0
    outer loop
      vertex 10.9154 51.3527 0
      vertex 10.25 51.4581 10
      vertex 10.9154 51.3527 10
    endloop
  endfacet
  facet normal 0.156442 0.987687 -5.63825e-07
    outer loop
      vertex 5.48774 52.2124 0
      vertex 10.25 51.4581 10
      vertex 10.9154 51.3527 0
    endloop
  endfacet
  facet normal 0.156441 0.987687 0
    outer loop
      vertex 10.25 51.4581 10
      vertex 5.48774 52.2124 0
      vertex 5.48774 52.2124 10
    endloop
  endfacet
  facet normal -0.620192 -0.166186 0.766644
    outer loop
      vertex -24.4537 -5.19779 33
      vertex -49.9305 -16.2234 10
      vertex -23.7764 -7.72542 33
    endloop
  endfacet
  facet normal 0.599424 0.230104 0.766644
    outer loop
      vertex 49.9305 16.2234 10
      vertex 22.8386 10.1684 33
      vertex 23.7764 7.72542 33
    endloop
  endfacet
  facet normal 0.57209 0.291496 0.766644
    outer loop
      vertex 45.4663 26.25 10
      vertex 22.8386 10.1684 33
      vertex 47.9611 21.3537 10
    endloop
  endfacet
  facet normal -0.99863 0.0523359 0
    outer loop
      vertex -52.5 0 0
      vertex -52.2124 5.48774 10
      vertex -52.2124 5.48774 0
    endloop
  endfacet
  facet normal -0.99863 0.0523359 0
    outer loop
      vertex -52.2124 5.48774 10
      vertex -52.5 0 0
      vertex -52.5 0 10
    endloop
  endfacet
  facet normal -0.965929 0.258806 0
    outer loop
      vertex -51.3527 10.9154 0
      vertex -49.9305 16.2234 10
      vertex -49.9305 16.2234 0
    endloop
  endfacet
  facet normal -0.965929 0.258806 0
    outer loop
      vertex -49.9305 16.2234 10
      vertex -51.3527 10.9154 0
      vertex -51.3527 10.9154 10
    endloop
  endfacet
  facet normal -0.404066 0.498986 0.766644
    outer loop
      vertex -30.8587 42.4734 10
      vertex -35.1294 39.0151 10
      vertex -14.6946 20.2254 33
    endloop
  endfacet
  facet normal -0.629315 0.77715 0
    outer loop
      vertex -30.8587 42.4734 0
      vertex -35.1294 39.0151 10
      vertex -30.8587 42.4734 10
    endloop
  endfacet
  facet normal -0.629315 0.77715 0
    outer loop
      vertex -35.1294 39.0151 10
      vertex -30.8587 42.4734 0
      vertex -35.1294 39.0151 0
    endloop
  endfacet
  facet normal 0.349696 -0.538489 0.766644
    outer loop
      vertex 30.8587 -42.4734 10
      vertex 14.6946 -20.2254 33
      vertex 26.25 -45.4663 10
    endloop
  endfacet
  facet normal -0.166142 -0.620208 0.766642
    outer loop
      vertex -10.25 -31.5463 26.1672
      vertex -16.2234 -49.9305 10
      vertex -10.25 -36.1278 22.4608
    endloop
  endfacet
  facet normal 0.453992 -0.891006 0
    outer loop
      vertex 21.3537 -47.9611 0
      vertex 26.25 -45.4663 10
      vertex 21.3537 -47.9611 10
    endloop
  endfacet
  facet normal 0.453992 -0.891006 0
    outer loop
      vertex 26.25 -45.4663 10
      vertex 21.3537 -47.9611 0
      vertex 26.25 -45.4663 0
    endloop
  endfacet
  facet normal -0.453992 0.891006 0
    outer loop
      vertex -21.3537 47.9611 0
      vertex -26.25 45.4663 10
      vertex -21.3537 47.9611 10
    endloop
  endfacet
  facet normal -0.453992 0.891006 0
    outer loop
      vertex -26.25 45.4663 10
      vertex -21.3537 47.9611 0
      vertex -26.25 45.4663 0
    endloop
  endfacet
  facet normal -0.0523359 0.99863 0
    outer loop
      vertex 0 52.5 0
      vertex -5.48774 52.2124 10
      vertex 0 52.5 10
    endloop
  endfacet
  facet normal -0.0523359 0.99863 0
    outer loop
      vertex -5.48774 52.2124 10
      vertex 0 52.5 0
      vertex -5.48774 52.2124 0
    endloop
  endfacet
  facet normal 0.166173 0.620199 0.766642
    outer loop
      vertex 10.25 48.2225 12.6765
      vertex 16.2234 49.9305 10
      vertex 10.9154 51.3527 10
    endloop
  endfacet
  facet normal 0.166175 0.620195 0.766644
    outer loop
      vertex 16.2234 49.9305 10
      vertex 10.25 48.2225 12.6765
      vertex 10.25 36.1278 22.4608
    endloop
  endfacet
  facet normal 0 0 1
    outer loop
      vertex 24.863 2.61321 33
      vertex 24.863 -2.61321 33
      vertex 25 0 33
    endloop
  endfacet
  facet normal 0 0 1
    outer loop
      vertex 24.4537 5.19779 33
      vertex 24.863 -2.61321 33
      vertex 24.863 2.61321 33
    endloop
  endfacet
  facet normal 0 0 1
    outer loop
      vertex 24.4537 5.19779 33
      vertex 24.4537 -5.19779 33
      vertex 24.863 -2.61321 33
    endloop
  endfacet
  facet normal 0 0 1
    outer loop
      vertex 23.7764 7.72542 33
      vertex 24.4537 -5.19779 33
      vertex 24.4537 5.19779 33
    endloop
  endfacet
  facet normal 0 0 1
    outer loop
      vertex 23.7764 7.72542 33
      vertex 23.7764 -7.72542 33
      vertex 24.4537 -5.19779 33
    endloop
  endfacet
  facet normal 0 0 1
    outer loop
      vertex 22.8386 10.1684 33
      vertex 23.7764 -7.72542 33
      vertex 23.7764 7.72542 33
    endloop
  endfacet
  facet normal 0 0 1
    outer loop
      vertex 22.8386 10.1684 33
      vertex 22.8386 -10.1684 33
      vertex 23.7764 -7.72542 33
    endloop
  endfacet
  facet normal 0 0 1
    outer loop
      vertex 21.6506 12.5 33
      vertex 22.8386 -10.1684 33
      vertex 22.8386 10.1684 33
    endloop
  endfacet
  facet normal 0 0 1
    outer loop
      vertex 21.6506 12.5 33
      vertex 21.6506 -12.5 33
      vertex 22.8386 -10.1684 33
    endloop
  endfacet
  facet normal 0 0 1
    outer loop
      vertex 20.2254 14.6946 33
      vertex 21.6506 -12.5 33
      vertex 21.6506 12.5 33
    endloop
  endfacet
  facet normal 0 0 1
    outer loop
      vertex 20.2254 14.6946 33
      vertex 20.2254 -14.6946 33
      vertex 21.6506 -12.5 33
    endloop
  endfacet
  facet normal 0 0 1
    outer loop
      vertex 18.5786 16.7283 33
      vertex 20.2254 -14.6946 33
      vertex 20.2254 14.6946 33
    endloop
  endfacet
  facet normal 0 0 1
    outer loop
      vertex 18.5786 16.7283 33
      vertex 18.5786 -16.7283 33
      vertex 20.2254 -14.6946 33
    endloop
  endfacet
  facet normal 0 0 1
    outer loop
      vertex 16.7283 18.5786 33
      vertex 18.5786 -16.7283 33
      vertex 18.5786 16.7283 33
    endloop
  endfacet
  facet normal 0 0 1
    outer loop
      vertex 16.7283 18.5786 33
      vertex 16.7283 -18.5786 33
      vertex 18.5786 -16.7283 33
    endloop
  endfacet
  facet normal 0 0 1
    outer loop
      vertex 14.6946 20.2254 33
      vertex 16.7283 -18.5786 33
      vertex 16.7283 18.5786 33
    endloop
  endfacet
  facet normal 0 0 1
    outer loop
      vertex 14.6946 20.2254 33
      vertex 14.6946 -20.2254 33
      vertex 16.7283 -18.5786 33
    endloop
  endfacet
  facet normal 0 0 1
    outer loop
      vertex 12.5 21.6506 33
      vertex 14.6946 -20.2254 33
      vertex 14.6946 20.2254 33
    endloop
  endfacet
  facet normal 0 0 1
    outer loop
      vertex 12.5 21.6506 33
      vertex 12.5 -21.6506 33
      vertex 14.6946 -20.2254 33
    endloop
  endfacet
  facet normal 0 0 1
    outer loop
      vertex 10.25 22.7971 33
      vertex 12.5 -21.6506 33
      vertex 12.5 21.6506 33
    endloop
  endfacet
  facet normal 0 0 1
    outer loop
      vertex 12.5 -21.6506 33
      vertex 10.25 22.7971 33
      vertex 10.25 -22.7971 33
    endloop
  endfacet
  facet normal -0 0 1
    outer loop
      vertex -12.5 21.6506 33
      vertex -10.25 -22.7971 33
      vertex -10.25 22.7971 33
    endloop
  endfacet
  facet normal 0 0 1
    outer loop
      vertex -12.5 21.6506 33
      vertex -12.5 -21.6506 33
      vertex -10.25 -22.7971 33
    endloop
  endfacet
  facet normal -0 0 1
    outer loop
      vertex -14.6946 20.2254 33
      vertex -12.5 -21.6506 33
      vertex -12.5 21.6506 33
    endloop
  endfacet
  facet normal 0 0 1
    outer loop
      vertex -14.6946 20.2254 33
      vertex -14.6946 -20.2254 33
      vertex -12.5 -21.6506 33
    endloop
  endfacet
  facet normal -0 0 1
    outer loop
      vertex -16.7283 18.5786 33
      vertex -14.6946 -20.2254 33
      vertex -14.6946 20.2254 33
    endloop
  endfacet
  facet normal 0 0 1
    outer loop
      vertex -16.7283 18.5786 33
      vertex -16.7283 -18.5786 33
      vertex -14.6946 -20.2254 33
    endloop
  endfacet
  facet normal -0 0 1
    outer loop
      vertex -18.5786 16.7283 33
      vertex -16.7283 -18.5786 33
      vertex -16.7283 18.5786 33
    endloop
  endfacet
  facet normal 0 0 1
    outer loop
      vertex -18.5786 16.7283 33
      vertex -18.5786 -16.7283 33
      vertex -16.7283 -18.5786 33
    endloop
  endfacet
  facet normal -0 0 1
    outer loop
      vertex -20.2254 14.6946 33
      vertex -18.5786 -16.7283 33
      vertex -18.5786 16.7283 33
    endloop
  endfacet
  facet normal 0 0 1
    outer loop
      vertex -20.2254 14.6946 33
      vertex -20.2254 -14.6946 33
      vertex -18.5786 -16.7283 33
    endloop
  endfacet
  facet normal -0 0 1
    outer loop
      vertex -21.6506 12.5 33
      vertex -20.2254 -14.6946 33
      vertex -20.2254 14.6946 33
    endloop
  endfacet
  facet normal 0 0 1
    outer loop
      vertex -21.6506 12.5 33
      vertex -21.6506 -12.5 33
      vertex -20.2254 -14.6946 33
    endloop
  endfacet
  facet normal -0 0 1
    outer loop
      vertex -22.8386 10.1684 33
      vertex -21.6506 -12.5 33
      vertex -21.6506 12.5 33
    endloop
  endfacet
  facet normal 0 0 1
    outer loop
      vertex -22.8386 10.1684 33
      vertex -22.8386 -10.1684 33
      vertex -21.6506 -12.5 33
    endloop
  endfacet
  facet normal -0 0 1
    outer loop
      vertex -23.7764 7.72542 33
      vertex -22.8386 -10.1684 33
      vertex -22.8386 10.1684 33
    endloop
  endfacet
  facet normal 0 0 1
    outer loop
      vertex -23.7764 7.72542 33
      vertex -23.7764 -7.72542 33
      vertex -22.8386 -10.1684 33
    endloop
  endfacet
  facet normal -0 0 1
    outer loop
      vertex -24.4537 5.19779 33
      vertex -23.7764 -7.72542 33
      vertex -23.7764 7.72542 33
    endloop
  endfacet
  facet normal 0 0 1
    outer loop
      vertex -24.4537 5.19779 33
      vertex -24.4537 -5.19779 33
      vertex -23.7764 -7.72542 33
    endloop
  endfacet
  facet normal -0 0 1
    outer loop
      vertex -24.863 2.61321 33
      vertex -24.4537 -5.19779 33
      vertex -24.4537 5.19779 33
    endloop
  endfacet
  facet normal 0 0 1
    outer loop
      vertex -24.863 2.61321 33
      vertex -24.863 -2.61321 33
      vertex -24.4537 -5.19779 33
    endloop
  endfacet
  facet normal 0 -0 1
    outer loop
      vertex -24.863 -2.61321 33
      vertex -24.863 2.61321 33
      vertex -25 0 33
    endloop
  endfacet
  facet normal 0.166142 -0.620208 0.766642
    outer loop
      vertex 10.25 -31.5463 26.1672
      vertex 10.25 -36.1278 22.4608
      vertex 16.2234 -49.9305 10
    endloop
  endfacet
  facet normal 0.404066 0.498986 0.766644
    outer loop
      vertex 30.8587 42.4734 10
      vertex 14.6946 20.2254 33
      vertex 35.1294 39.0151 10
    endloop
  endfacet
  facet normal -0.0523359 -0.99863 0
    outer loop
      vertex -5.48774 -52.2124 0
      vertex 0 -52.5 10
      vertex -5.48774 -52.2124 10
    endloop
  endfacet
  facet normal -0.0523359 -0.99863 -0
    outer loop
      vertex 0 -52.5 10
      vertex -5.48774 -52.2124 0
      vertex 0 -52.5 0
    endloop
  endfacet
  facet normal 0.291491 0.572093 0.766644
    outer loop
      vertex 10.25 22.9534 32.8833
      vertex 12.5 21.6506 33
      vertex 26.25 45.4663 10
    endloop
  endfacet
  facet normal 0.291605 0.572274 0.766465
    outer loop
      vertex 12.5 21.6506 33
      vertex 10.25 22.9534 32.8833
      vertex 10.25 22.7971 33
    endloop
  endfacet
  facet normal -0.230117 -0.599421 0.766642
    outer loop
      vertex -10.25 -23.2037 32.6901
      vertex -16.2234 -49.9305 10
      vertex -10.25 -31.5463 26.1672
    endloop
  endfacet
  facet normal -0.291765 -0.571922 0.766667
    outer loop
      vertex -26.25 -45.4663 10
      vertex -10.25 -23.0219 32.8322
      vertex -10.25 -22.9534 32.8833
    endloop
  endfacet
  facet normal -0.291496 -0.572091 0.766644
    outer loop
      vertex -10.25 -23.0219 32.8322
      vertex -26.25 -45.4663 10
      vertex -21.3537 -47.9611 10
    endloop
  endfacet
  facet normal -0.538489 -0.349696 0.766644
    outer loop
      vertex -20.2254 -14.6946 33
      vertex -45.4663 -26.25 10
      vertex -42.4734 -30.8587 10
    endloop
  endfacet
  facet normal -0.358378 0.933577 0
    outer loop
      vertex -16.2234 49.9305 0
      vertex -21.3537 47.9611 10
      vertex -16.2234 49.9305 10
    endloop
  endfacet
  facet normal -0.358378 0.933577 0
    outer loop
      vertex -21.3537 47.9611 10
      vertex -16.2234 49.9305 0
      vertex -21.3537 47.9611 0
    endloop
  endfacet
  facet normal -0.498986 0.404066 0.766644
    outer loop
      vertex -39.0151 35.1294 10
      vertex -42.4734 30.8587 10
      vertex -20.2254 14.6946 33
    endloop
  endfacet
  facet normal 0.891006 -0.453992 0
    outer loop
      vertex 45.4663 -26.25 10
      vertex 47.9611 -21.3537 0
      vertex 47.9611 -21.3537 10
    endloop
  endfacet
  facet normal 0.891006 -0.453992 0
    outer loop
      vertex 47.9611 -21.3537 0
      vertex 45.4663 -26.25 10
      vertex 45.4663 -26.25 0
    endloop
  endfacet
  facet normal 0.57209 -0.291496 0.766644
    outer loop
      vertex 47.9611 -21.3537 10
      vertex 22.8386 -10.1684 33
      vertex 45.4663 -26.25 10
    endloop
  endfacet
  facet normal 0.349696 0.538489 0.766644
    outer loop
      vertex 26.25 45.4663 10
      vertex 14.6946 20.2254 33
      vertex 30.8587 42.4734 10
    endloop
  endfacet
  facet normal 0.404061 0.498991 0.766644
    outer loop
      vertex 35.1294 39.0151 10
      vertex 14.6946 20.2254 33
      vertex 16.7283 18.5786 33
    endloop
  endfacet
  facet normal 0.498991 0.404061 0.766644
    outer loop
      vertex 39.0151 35.1294 10
      vertex 18.5786 16.7283 33
      vertex 20.2254 14.6946 33
    endloop
  endfacet
  facet normal 0.498986 0.404066 0.766644
    outer loop
      vertex 39.0151 35.1294 10
      vertex 20.2254 14.6946 33
      vertex 42.4734 30.8587 10
    endloop
  endfacet
  facet normal 0.538489 0.349696 0.766644
    outer loop
      vertex 42.4734 30.8587 10
      vertex 20.2254 14.6946 33
      vertex 45.4663 26.25 10
    endloop
  endfacet
  facet normal -0.891006 -0.453992 0
    outer loop
      vertex -45.4663 -26.25 0
      vertex -47.9611 -21.3537 10
      vertex -47.9611 -21.3537 0
    endloop
  endfacet
  facet normal -0.891006 -0.453992 0
    outer loop
      vertex -47.9611 -21.3537 10
      vertex -45.4663 -26.25 0
      vertex -45.4663 -26.25 10
    endloop
  endfacet
  facet normal -0.641193 -0.0336035 0.766644
    outer loop
      vertex -25 0 33
      vertex -52.5 0 10
      vertex -52.2124 -5.48774 10
    endloop
  endfacet
  facet normal -0.291605 -0.572274 0.766465
    outer loop
      vertex -12.5 -21.6506 33
      vertex -10.25 -22.9534 32.8833
      vertex -10.25 -22.7971 33
    endloop
  endfacet
  facet normal -0.291491 -0.572093 0.766644
    outer loop
      vertex -10.25 -22.9534 32.8833
      vertex -12.5 -21.6506 33
      vertex -26.25 -45.4663 10
    endloop
  endfacet
  facet normal -0.641191 -0.0336151 0.766645
    outer loop
      vertex -25 0 33
      vertex -52.2124 -5.48774 10
      vertex -24.863 -2.61321 33
    endloop
  endfacet
  facet normal -0.707107 0.707107 0
    outer loop
      vertex -39.0151 35.1294 0
      vertex -35.1294 39.0151 10
      vertex -35.1294 39.0151 0
    endloop
  endfacet
  facet normal -0.707107 0.707107 0
    outer loop
      vertex -35.1294 39.0151 10
      vertex -39.0151 35.1294 0
      vertex -39.0151 35.1294 10
    endloop
  endfacet
  facet normal 0.358378 -0.933577 0
    outer loop
      vertex 16.2234 -49.9305 0
      vertex 21.3537 -47.9611 10
      vertex 16.2234 -49.9305 10
    endloop
  endfacet
  facet normal 0.358378 -0.933577 0
    outer loop
      vertex 21.3537 -47.9611 10
      vertex 16.2234 -49.9305 0
      vertex 21.3537 -47.9611 0
    endloop
  endfacet
  facet normal -0.404061 -0.498991 0.766644
    outer loop
      vertex -16.7283 -18.5786 33
      vertex -35.1294 -39.0151 10
      vertex -14.6946 -20.2254 33
    endloop
  endfacet
  facet normal -0.629315 -0.77715 0
    outer loop
      vertex -35.1294 -39.0151 0
      vertex -30.8587 -42.4734 10
      vertex -35.1294 -39.0151 10
    endloop
  endfacet
  facet normal -0.629315 -0.77715 -0
    outer loop
      vertex -30.8587 -42.4734 10
      vertex -35.1294 -39.0151 0
      vertex -30.8587 -42.4734 0
    endloop
  endfacet
  facet normal -0.707107 -0.707107 0
    outer loop
      vertex -35.1294 -39.0151 0
      vertex -39.0151 -35.1294 10
      vertex -39.0151 -35.1294 0
    endloop
  endfacet
  facet normal -0.707107 -0.707107 0
    outer loop
      vertex -39.0151 -35.1294 10
      vertex -35.1294 -39.0151 0
      vertex -35.1294 -39.0151 10
    endloop
  endfacet
  facet normal 0.933577 -0.358378 0
    outer loop
      vertex 47.9611 -21.3537 10
      vertex 49.9305 -16.2234 0
      vertex 49.9305 -16.2234 10
    endloop
  endfacet
  facet normal 0.933577 -0.358378 0
    outer loop
      vertex 49.9305 -16.2234 0
      vertex 47.9611 -21.3537 10
      vertex 47.9611 -21.3537 0
    endloop
  endfacet
  facet normal -0.404066 -0.498986 0.766644
    outer loop
      vertex -14.6946 -20.2254 33
      vertex -35.1294 -39.0151 10
      vertex -30.8587 -42.4734 10
    endloop
  endfacet
  facet normal -0.3497 -0.538486 0.766644
    outer loop
      vertex -14.6946 -20.2254 33
      vertex -26.25 -45.4663 10
      vertex -12.5 -21.6506 33
    endloop
  endfacet
  facet normal -0.599424 -0.230105 0.766644
    outer loop
      vertex -22.8386 -10.1684 33
      vertex -49.9305 -16.2234 10
      vertex -47.9611 -21.3537 10
    endloop
  endfacet
  facet normal -0.258806 0.965929 0
    outer loop
      vertex -10.9154 51.3527 0
      vertex -16.2234 49.9305 10
      vertex -10.9154 51.3527 10
    endloop
  endfacet
  facet normal -0.258806 0.965929 0
    outer loop
      vertex -16.2234 49.9305 10
      vertex -10.9154 51.3527 0
      vertex -16.2234 49.9305 0
    endloop
  endfacet
  facet normal -1 0 0
    outer loop
      vertex 10.25 -48.2225 12.6765
      vertex 10.25 48.2225 12.6765
      vertex 10.25 51.4581 10
    endloop
  endfacet
  facet normal -1 0 0
    outer loop
      vertex 10.25 48.2225 12.6765
      vertex 10.25 -48.2225 12.6765
      vertex 10.25 36.1278 22.4608
    endloop
  endfacet
  facet normal -1 0 0
    outer loop
      vertex 10.25 36.1278 22.4608
      vertex 10.25 -36.1278 22.4608
      vertex 10.25 31.5463 26.1672
    endloop
  endfacet
  facet normal -1 0 -0
    outer loop
      vertex 10.25 -31.5463 26.1672
      vertex 10.25 31.5463 26.1672
      vertex 10.25 -36.1278 22.4608
    endloop
  endfacet
  facet normal -1 0 0
    outer loop
      vertex 10.25 31.5463 26.1672
      vertex 10.25 -31.5463 26.1672
      vertex 10.25 23.2037 32.6901
    endloop
  endfacet
  facet normal -1 0 -0
    outer loop
      vertex 10.25 -23.2037 32.6901
      vertex 10.25 23.2037 32.6901
      vertex 10.25 -31.5463 26.1672
    endloop
  endfacet
  facet normal -1 0 -0
    outer loop
      vertex 10.25 22.9534 32.8833
      vertex 10.25 23.2037 32.6901
      vertex 10.25 -23.2037 32.6901
    endloop
  endfacet
  facet normal -1 -0 0
    outer loop
      vertex 10.25 22.7971 33
      vertex 10.25 -23.2037 32.6901
      vertex 10.25 -22.7971 33
    endloop
  endfacet
  facet normal -1 0 0
    outer loop
      vertex 10.25 -22.7971 33
      vertex 10.25 -23.2037 32.6901
      vertex 10.25 -22.9534 32.8833
    endloop
  endfacet
  facet normal -1 0 0
    outer loop
      vertex 10.25 -22.9534 32.8833
      vertex 10.25 -23.2037 32.6901
      vertex 10.25 -23.0219 32.8322
    endloop
  endfacet
  facet normal -1 -0 0
    outer loop
      vertex 10.25 22.9534 32.8833
      vertex 10.25 -23.2037 32.6901
      vertex 10.25 22.7971 33
    endloop
  endfacet
  facet normal -1 0 0
    outer loop
      vertex 10.25 23.2037 32.6901
      vertex 10.25 22.9534 32.8833
      vertex 10.25 23.0219 32.8322
    endloop
  endfacet
  facet normal -1 -0 0
    outer loop
      vertex 10.25 36.1278 22.4608
      vertex 10.25 -48.2225 12.6765
      vertex 10.25 -36.1278 22.4608
    endloop
  endfacet
  facet normal -1 0 -0
    outer loop
      vertex 10.25 -48.2225 12.6765
      vertex 10.25 51.4581 10
      vertex 10.25 -51.4581 10
    endloop
  endfacet
  facet normal 0 0 1
    outer loop
      vertex 5.48774 52.2124 10
      vertex 10.25 -51.4581 10
      vertex 10.25 51.4581 10
    endloop
  endfacet
  facet normal 0 0 1
    outer loop
      vertex 5.48774 52.2124 10
      vertex 5.48774 -52.2124 10
      vertex 10.25 -51.4581 10
    endloop
  endfacet
  facet normal 0 0 1
    outer loop
      vertex 0 52.5 10
      vertex 5.48774 -52.2124 10
      vertex 5.48774 52.2124 10
    endloop
  endfacet
  facet normal 0 0 1
    outer loop
      vertex 0 52.5 10
      vertex 0 -52.5 10
      vertex 5.48774 -52.2124 10
    endloop
  endfacet
  facet normal -0 0 1
    outer loop
      vertex -5.48774 52.2124 10
      vertex 0 -52.5 10
      vertex 0 52.5 10
    endloop
  endfacet
  facet normal 0 0 1
    outer loop
      vertex -5.48774 52.2124 10
      vertex -5.48774 -52.2124 10
      vertex 0 -52.5 10
    endloop
  endfacet
  facet normal -0 0 1
    outer loop
      vertex -10.25 51.4581 10
      vertex -5.48774 -52.2124 10
      vertex -5.48774 52.2124 10
    endloop
  endfacet
  facet normal 0 0 1
    outer loop
      vertex -5.48774 -52.2124 10
      vertex -10.25 51.4581 10
      vertex -10.25 -51.4581 10
    endloop
  endfacet
  facet normal 1 0 0
    outer loop
      vertex -10.25 -48.2225 12.6765
      vertex -10.25 48.2225 12.6765
      vertex -10.25 36.1278 22.4608
    endloop
  endfacet
  facet normal 1 0 0
    outer loop
      vertex -10.25 -36.1278 22.4608
      vertex -10.25 36.1278 22.4608
      vertex -10.25 31.5463 26.1672
    endloop
  endfacet
  facet normal 1 0 0
    outer loop
      vertex -10.25 -31.5463 26.1672
      vertex -10.25 31.5463 26.1672
      vertex -10.25 23.2037 32.6901
    endloop
  endfacet
  facet normal 1 0 0
    outer loop
      vertex -10.25 22.9534 32.8833
      vertex -10.25 23.2037 32.6901
      vertex -10.25 23.0219 32.8322
    endloop
  endfacet
  facet normal 1 0 0
    outer loop
      vertex -10.25 23.2037 32.6901
      vertex -10.25 22.9534 32.8833
      vertex -10.25 -23.2037 32.6901
    endloop
  endfacet
  facet normal 1 0 0
    outer loop
      vertex -10.25 -23.2037 32.6901
      vertex -10.25 22.9534 32.8833
      vertex -10.25 22.7971 33
    endloop
  endfacet
  facet normal 1 0 0
    outer loop
      vertex -10.25 -23.2037 32.6901
      vertex -10.25 22.7971 33
      vertex -10.25 -22.7971 33
    endloop
  endfacet
  facet normal 1 0 0
    outer loop
      vertex -10.25 -23.2037 32.6901
      vertex -10.25 -22.7971 33
      vertex -10.25 -22.9534 32.8833
    endloop
  endfacet
  facet normal 1 0 0
    outer loop
      vertex -10.25 -23.2037 32.6901
      vertex -10.25 -22.9534 32.8833
      vertex -10.25 -23.0219 32.8322
    endloop
  endfacet
  facet normal 1 0 0
    outer loop
      vertex -10.25 23.2037 32.6901
      vertex -10.25 -23.2037 32.6901
      vertex -10.25 -31.5463 26.1672
    endloop
  endfacet
  facet normal 1 0 0
    outer loop
      vertex -10.25 31.5463 26.1672
      vertex -10.25 -31.5463 26.1672
      vertex -10.25 -36.1278 22.4608
    endloop
  endfacet
  facet normal 1 0 0
    outer loop
      vertex -10.25 -48.2225 12.6765
      vertex -10.25 36.1278 22.4608
      vertex -10.25 -36.1278 22.4608
    endloop
  endfacet
  facet normal 1 0 0
    outer loop
      vertex -10.25 48.2225 12.6765
      vertex -10.25 -48.2225 12.6765
      vertex -10.25 51.4581 10
    endloop
  endfacet
  facet normal 1 0 0
    outer loop
      vertex -10.25 51.4581 10
      vertex -10.25 -48.2225 12.6765
      vertex -10.25 -51.4581 10
    endloop
  endfacet
endsolid OpenSCAD_Model
